<?xml version="1.0" standalone="no"?>
<!DOCTYPE svg PUBLIC "-//W3C//DTD SVG 20010904//EN"
 "http://www.w3.org/TR/2001/REC-SVG-20010904/DTD/svg10.dtd">
<svg version="1.0" xmlns="http://www.w3.org/2000/svg"
 width="713.000000pt" height="713.000000pt" viewBox="0 0 713.000000 713.000000"
 preserveAspectRatio="xMidYMid meet">
<metadata>
Created by potrace 1.14, written by Peter Selinger 2001-2017
</metadata>
<g transform="translate(0.000000,713.000000) scale(0.100000,-0.100000)"
fill="#000000" stroke="none">
<path d="M3039 6558 c0 -2 -2 -12 -4 -23 -2 -11 -15 -50 -29 -86 -78 -206 -67
-423 30 -608 24 -46 44 -85 44 -87 0 -2 -6 -4 -13 -4 -8 0 -25 -10 -38 -21
-54 -47 -61 -49 -109 -33 -74 25 -302 146 -330 174 -3 3 -26 19 -52 37 l-47
32 -8 -27 c-10 -31 -9 -306 1 -372 9 -58 50 -162 81 -208 14 -20 25 -41 25
-47 1 -5 19 -28 40 -50 26 -26 36 -43 30 -51 -6 -6 -8 -13 -5 -15 2 -3 -1 -25
-6 -49 -13 -54 -15 -64 -29 -165 -14 -90 -19 -136 -24 -215 -2 -30 -7 -68 -10
-85 -3 -16 -10 -54 -16 -83 -5 -29 -23 -86 -40 -126 -25 -60 -37 -76 -60 -84
-53 -19 -82 -92 -61 -155 15 -42 61 -94 92 -102 14 -3 39 -19 56 -36 18 -16
37 -29 42 -29 6 0 11 -4 11 -9 0 -10 77 -44 140 -61 49 -14 180 -13 198 0 2 3
2 3 52 14 19 5 49 15 65 24 76 38 71 40 49 -13 -23 -55 -57 -105 -73 -105 -8
0 -11 -6 -7 -15 3 -8 1 -15 -4 -15 -5 0 -11 -8 -14 -17 -3 -10 -16 -29 -28
-43 -73 -80 -248 -382 -248 -427 0 -8 -4 -11 -10 -8 -5 3 -11 1 -11 -4 -1 -6
-2 -19 -4 -28 -1 -10 -7 -31 -14 -48 -6 -16 -16 -41 -21 -55 -13 -34 -47 -176
-55 -225 -3 -22 -8 -53 -11 -69 -3 -18 -24 -48 -54 -77 -27 -26 -46 -50 -43
-53 4 -3 1 -6 -5 -6 -6 0 -14 -9 -17 -20 -4 -11 -11 -17 -17 -14 -6 4 -8 2 -5
-3 4 -6 0 -16 -8 -23 -8 -7 -13 -16 -10 -20 3 -5 1 -11 -5 -15 -10 -6 -48 -75
-47 -85 0 -3 -6 -16 -13 -30 -8 -14 -15 -28 -16 -32 -1 -5 -2 -9 -4 -10 -1 -2
-3 -10 -5 -18 -1 -8 -12 -46 -24 -85 -11 -38 -22 -84 -24 -100 -2 -17 -6 -35
-9 -40 -3 -6 -5 -25 -3 -42 1 -18 -1 -33 -4 -33 -7 0 -5 -107 3 -245 6 -97 52
-288 85 -353 11 -22 17 -42 14 -46 -4 -3 -1 -6 5 -6 7 0 11 -3 10 -8 -2 -7 33
-83 42 -92 3 -3 14 -21 24 -40 29 -54 119 -172 162 -212 70 -66 109 -98 137
-115 15 -10 27 -21 27 -25 0 -4 5 -8 12 -8 6 0 19 -6 27 -14 9 -8 60 -37 114
-64 53 -27 94 -52 89 -57 -4 -5 -2 -5 5 -1 16 9 94 -24 86 -37 -3 -6 -1 -7 6
-3 6 4 21 4 32 1 17 -6 18 -9 8 -15 -9 -6 -3 -9 16 -8 17 0 57 -8 90 -18 33
-10 65 -19 70 -20 6 -1 13 -3 18 -4 8 -3 9 -3 52 -13 48 -11 78 -18 110 -23
17 -3 41 -7 55 -10 36 -7 67 -12 130 -19 30 -4 64 -9 75 -11 11 -2 63 -6 115
-8 52 -2 100 -5 105 -6 6 -1 12 -1 15 0 7 3 80 8 172 12 43 2 78 5 78 8 0 6
34 9 117 13 24 1 43 5 43 10 0 4 14 5 31 2 22 -4 28 -2 23 6 -5 8 -2 10 8 6 9
-3 21 0 27 6 8 8 11 7 11 -3 1 -12 3 -12 13 1 7 9 19 16 27 17 27 1 67 12 102
27 20 8 38 11 42 8 3 -4 6 0 6 7 0 7 3 10 7 7 3 -4 11 -3 17 2 6 5 29 14 51
21 22 7 42 16 45 19 3 3 30 17 60 31 68 31 193 101 201 113 3 5 8 7 11 5 5 -3
134 83 161 107 7 6 30 24 52 40 86 64 231 201 323 305 111 126 118 135 138
166 10 16 26 34 34 41 8 7 11 13 5 13 -7 0 -7 3 0 8 23 16 109 162 162 272 52
109 82 180 76 180 -3 0 0 7 7 15 7 8 9 15 5 15 -4 0 -3 6 3 12 8 11 39 107 47
148 2 8 8 33 14 55 6 22 12 60 15 85 2 25 5 45 6 45 0 0 3 25 5 55 3 30 7 66
10 79 7 27 7 205 0 261 -3 33 -6 48 -22 140 -9 55 -20 105 -23 105 -2 0 -7 19
-15 58 -15 71 -85 187 -113 187 -5 0 -1 -24 9 -54 18 -52 26 -159 16 -201 -3
-11 -6 -23 -6 -26 -2 -15 -59 -63 -91 -77 -60 -26 -133 -42 -145 -32 -6 5 -17
5 -24 1 -7 -5 -36 -7 -64 -4 -68 6 -239 41 -250 52 -4 4 -2 26 6 47 23 61 55
212 62 291 13 140 -42 346 -146 543 -71 134 -98 169 -232 307 -55 56 -97 106
-93 111 16 26 -67 192 -92 185 -9 -3 -81 16 -101 26 -13 7 -17 17 -25 66 -2
11 -5 21 -6 23 -4 3 -7 18 -27 152 -3 19 -7 38 -10 43 -2 4 2 7 9 7 8 0 9 3 3
8 -10 7 -14 17 -21 62 -4 25 -15 73 -21 98 -2 6 -4 18 -6 25 -16 62 -44 141
-67 191 -16 33 -26 64 -23 69 3 6 1 7 -5 3 -7 -4 -12 -2 -12 5 0 6 -8 18 -17
26 -11 9 -12 11 -3 7 10 -5 8 1 -5 16 -11 14 -24 30 -30 37 -5 7 -15 19 -22
27 -6 7 -10 16 -8 18 2 2 -9 12 -25 23 -21 14 -28 26 -26 41 3 13 -1 21 -10
21 -10 0 -11 -4 -2 -14 8 -11 7 -12 -6 -7 -9 3 -16 10 -16 15 0 5 -16 24 -37
42 -59 52 -92 90 -87 99 3 4 -2 8 -12 8 -13 0 -14 3 -5 14 10 12 8 14 -11 9
-21 -4 -22 -3 -5 10 24 20 22 30 -3 15 -17 -11 -22 -10 -30 2 -5 8 -6 18 -3
24 3 5 2 6 -4 3 -6 -4 -21 5 -34 20 -19 21 -20 25 -6 20 11 -4 16 -3 12 3 -3
6 -12 10 -19 10 -8 0 -31 16 -52 36 -22 20 -33 33 -25 29 9 -5 12 -4 7 3 -4 7
-13 12 -20 12 -7 0 -21 8 -32 18 -10 9 -37 30 -59 46 -22 17 -43 35 -47 40 -4
6 -8 8 -8 4 0 -6 -146 73 -167 92 -7 6 -13 8 -13 5 0 -8 -64 26 -72 39 -4 6
-8 7 -8 3 0 -5 -12 -2 -27 6 -16 8 -46 22 -68 33 -22 10 -43 22 -46 27 -3 4
-10 7 -15 5 -15 -5 -94 34 -88 44 3 5 2 8 -3 7 -22 -4 -44 3 -77 26 -21 14
-34 20 -31 13 4 -7 -1 -4 -10 7 -8 11 -21 20 -28 21 -35 3 -40 5 -34 10 4 4
-16 17 -44 30 -32 15 -48 28 -43 35 4 8 3 9 -4 5 -11 -7 -20 -2 -57 32 -7 6
-17 12 -21 12 -4 0 -22 11 -40 25 -26 20 -71 34 -75 23z m36 -74 c-8 -9 -13
-20 -10 -25 4 -5 0 -9 -7 -9 -9 0 -9 -3 2 -10 13 -8 12 -10 -2 -10 -22 0 -22
-1 -3 44 9 20 20 34 25 31 6 -4 4 -12 -5 -21z m35 -10 c0 -8 -19 -13 -24 -6
-3 5 1 9 9 9 8 0 15 -2 15 -3z m-15 -44 c3 -5 1 -10 -4 -10 -6 0 -11 5 -11 10
0 6 2 10 4 10 3 0 8 -4 11 -10z m-41 -22 c-3 -4 -9 -8 -15 -8 -5 0 -9 4 -9 8
0 5 7 9 15 9 8 0 12 -4 9 -9z m-20 -33 c-5 -11 -1 -14 12 -9 18 5 18 5 0 -10
-21 -17 -40 -22 -33 -8 2 4 7 15 10 25 4 9 9 17 11 17 3 0 3 -7 0 -15z m132
-286 c16 -18 19 -33 5 -24 -6 3 -6 -7 -1 -26 11 -37 26 -55 17 -21 -7 29 7 28
30 -1 10 -13 37 -36 61 -52 23 -15 42 -32 42 -37 0 -5 4 -7 9 -4 4 3 26 -10
47 -29 21 -19 43 -35 49 -35 5 0 4 -5 -2 -11 -6 -6 -39 -12 -74 -14 -62 -4
-116 -12 -128 -19 -3 -2 -11 2 -18 9 -9 10 -9 15 -1 17 7 3 8 10 3 18 -6 10
-11 9 -23 -6 -11 -15 -13 -15 -9 -2 3 10 -1 19 -10 22 -13 5 -13 9 -2 23 8 9
9 14 3 10 -13 -8 -24 5 -42 46 -10 23 -10 27 0 21 9 -6 9 -3 -1 9 -10 13 -10
17 -1 17 10 0 10 3 0 15 -8 10 -14 54 -16 118 l-3 102 26 -65 c14 -36 32 -72
39 -81z m485 34 c13 -15 12 -15 -8 -4 -24 12 -29 21 -14 21 5 0 15 -7 22 -17z
m69 -7 c0 -11 -19 -15 -25 -6 -3 5 1 10 9 10 9 0 16 -2 16 -4z m177 -79 c0 -8
-6 -14 -14 -14 -9 0 -10 4 -2 14 6 7 12 13 14 13 1 0 2 -6 2 -13z m-144 -16
c3 -14 1 -18 -9 -14 -8 3 -14 11 -14 19 0 21 17 17 23 -5z m94 13 c-3 -3 -12
-4 -19 -1 -8 3 -5 6 6 6 11 1 17 -2 13 -5z m-130 -23 c0 -11 -5 -18 -9 -15 -4
3 -5 11 -1 19 7 21 12 19 10 -4z m-682 -21 c3 -5 1 -10 -4 -10 -6 0 -11 5 -11
10 0 6 2 10 4 10 3 0 8 -4 11 -10z m485 -21 c0 -14 -17 -10 -23 5 -4 10 -1 13
9 9 7 -3 14 -9 14 -14z m-470 -18 c7 -14 7 -22 -2 -27 -6 -4 -8 -3 -4 4 3 6 2
13 -4 17 -10 6 -14 25 -5 25 2 0 9 -9 15 -19z m770 15 c0 -11 -19 -15 -25 -6
-3 5 1 10 9 10 9 0 16 -2 16 -4z m-747 -77 c-4 -15 -8 -17 -14 -8 -8 14 -3 29
11 29 4 0 6 -9 3 -21z m697 7 c0 -7 -9 -16 -20 -19 -22 -6 -23 -5 -14 17 8 20
34 21 34 2z m-1235 -30 c12 -12 12 -15 -1 -20 -9 -3 -17 -6 -18 -6 -1 0 -2 9
-3 20 -2 24 3 25 22 6z m565 -15 c0 -17 -18 -21 -24 -6 -3 9 0 15 9 15 8 0 15
-4 15 -9z m770 -6 c0 -8 -4 -15 -10 -15 -5 0 -7 7 -4 15 4 8 8 15 10 15 2 0 4
-7 4 -15z m-737 -105 c4 -23 1 -33 -15 -41 -15 -8 -19 -8 -14 0 4 6 1 11 -6
11 -8 0 -6 5 5 11 21 12 22 47 2 75 -8 12 -11 24 -8 28 8 8 30 -42 36 -84z
m407 25 c7 -8 8 -15 2 -15 -5 0 -15 7 -22 15 -7 8 -8 15 -2 15 5 0 15 -7 22
-15z m294 -1 c9 -22 -3 -32 -14 -14 -12 19 -12 30 -1 30 5 0 12 -7 15 -16z
m23 -46 c-3 -7 -5 -2 -5 12 0 14 2 19 5 13 2 -7 2 -19 0 -25z m-1250 0 c-3 -8
-6 -5 -6 6 -1 11 2 17 5 13 3 -3 4 -12 1 -19z m863 -3 c0 -8 -4 -15 -10 -15
-5 0 -10 7 -10 15 0 8 5 15 10 15 6 0 10 -7 10 -15z m75 -13 c-3 -3 -11 0 -18
7 -9 10 -8 11 6 5 10 -3 15 -9 12 -12z m-469 -19 c-2 -10 2 -22 8 -26 7 -5 3
-7 -9 -5 -11 2 -20 -3 -20 -9 0 -7 -3 -12 -6 -10 -3 1 -12 -3 -20 -9 -8 -6
-22 -9 -32 -5 -17 6 -17 8 2 25 12 11 21 14 21 8 0 -7 5 -12 11 -12 5 0 7 5 4
11 -7 10 21 49 36 49 4 0 6 -8 5 -17z m654 7 c0 -5 -5 -10 -11 -10 -5 0 -7 5
-4 10 3 6 8 10 11 10 2 0 4 -4 4 -10z m-910 -5 c0 -2 -9 -9 -20 -15 -12 -6
-20 -7 -20 -1 0 5 8 12 18 14 9 3 18 5 20 6 1 0 2 -1 2 -4z m-278 -75 c0 -3 5
-12 12 -20 6 -8 18 -27 25 -42 16 -31 81 -102 131 -141 26 -20 32 -29 22 -36
-8 -4 -13 -11 -12 -15 3 -11 -22 -66 -30 -66 -4 0 -6 -11 -5 -25 4 -34 -8 -39
-35 -15 -13 11 -19 20 -14 20 5 0 5 4 -1 8 -9 6 -33 46 -56 92 -8 17 -21 54
-19 58 0 1 -6 15 -13 30 -16 29 -28 99 -32 177 l-3 50 15 -35 c8 -19 15 -37
15 -40z m713 50 c3 -5 1 -10 -4 -10 -6 0 -11 5 -11 10 0 6 2 10 4 10 3 0 8 -4
11 -10z m342 -17 c-8 -7 -37 9 -31 19 3 5 12 4 20 -3 8 -6 13 -14 11 -16z
m-1004 -23 c3 -11 1 -18 -4 -14 -5 3 -9 12 -9 20 0 8 -4 14 -10 14 -5 0 -10 5
-10 11 0 18 27 -8 33 -31z m907 26 c0 -3 -4 -8 -10 -11 -5 -3 -10 -1 -10 4 0
6 5 11 10 11 6 0 10 -2 10 -4z m-880 -76 c7 -14 7 -20 0 -20 -5 0 -10 6 -10
14 0 8 -6 17 -12 19 -10 4 -10 6 -1 6 7 1 17 -8 23 -19z m1110 16 c0 -2 -8
-10 -17 -17 -16 -13 -17 -12 -4 4 13 16 21 21 21 13z m-1050 -101 c8 -11 0 -7
-18 9 -18 17 -32 34 -32 40 0 10 23 -12 50 -49z m1795 37 c-3 -3 -11 0 -18 7
-9 10 -8 11 6 5 10 -3 15 -9 12 -12z m20 -23 c11 -17 -1 -21 -15 -4 -8 9 -8
15 -2 15 6 0 14 -5 17 -11z m-1775 -49 c8 -5 11 -10 5 -10 -5 0 -17 5 -25 10
-8 5 -10 10 -5 10 6 0 17 -5 25 -10z m885 -54 c-11 -8 -24 -12 -29 -8 -5 3 -1
9 10 13 31 12 39 10 19 -5z m135 -74 c-6 -2 -8 -7 -5 -12 3 -4 -4 -6 -15 -3
-22 6 -22 6 -14 27 5 12 9 13 25 3 11 -7 15 -13 9 -15z m-960 -19 c0 -15 -2
-16 -10 -3 -8 12 -10 12 -10 1 0 -8 -3 -12 -6 -8 -8 7 4 27 17 27 5 0 9 -8 9
-17z m1070 13 c0 -3 -4 -8 -10 -11 -5 -3 -10 -1 -10 4 0 6 5 11 10 11 6 0 10
-2 10 -4z m-50 -32 c0 -8 -4 -12 -10 -9 -5 3 -10 13 -10 21 0 8 5 12 10 9 6
-3 10 -13 10 -21z m-1055 -14 c3 -5 1 -10 -4 -10 -6 0 -11 5 -11 10 0 6 2 10
4 10 3 0 8 -4 11 -10z m1179 -135 c3 -9 0 -15 -9 -15 -8 0 -15 7 -15 15 0 8 4
15 9 15 5 0 11 -7 15 -15z m787 -12 c10 -11 10 -14 2 -9 -7 4 -13 2 -13 -3 0
-6 -5 -11 -11 -11 -8 0 -9 4 0 13 6 8 8 17 4 20 -3 4 -4 7 -1 7 3 0 12 -8 19
-17z m16 -79 c-9 -9 -28 6 -21 18 4 6 10 6 17 -1 6 -6 8 -13 4 -17z m-873 -69
c3 -8 1 -15 -3 -15 -5 0 -11 7 -15 15 -3 8 -1 15 3 15 5 0 11 -7 15 -15z m893
-37 c2 -17 0 -19 -7 -8 -5 8 -6 18 -4 22 8 12 10 10 11 -14z m-857 -108 c0 -5
-4 -10 -10 -10 -5 0 -10 5 -10 10 0 6 5 10 10 10 6 0 10 -4 10 -10z m884 -46
c3 -8 2 -12 -4 -9 -6 3 -10 10 -10 16 0 14 7 11 14 -7z m-2119 -51 c0 -32 -6
-58 -12 -60 -9 -3 -11 16 -3 37 1 3 2 9 1 14 -2 10 9 66 13 66 2 0 2 -26 1
-57z m1302 33 c0 -8 -6 -12 -14 -9 -7 3 -10 9 -7 14 8 14 21 11 21 -5z m96
-11 c-3 -9 -8 -14 -10 -11 -3 3 -2 9 2 15 9 16 15 13 8 -4z m-480 -8 c4 3 7 1
7 -5 0 -21 -16 -21 -30 1 -12 19 -11 21 2 10 8 -7 18 -10 21 -6z m412 -17 c-3
-5 -10 -10 -16 -10 -5 0 -9 5 -9 10 0 6 7 10 16 10 8 0 12 -4 9 -10z m-203
-32 c-7 -7 -12 -8 -12 -2 0 6 3 14 7 17 3 4 9 5 12 2 2 -3 -1 -11 -7 -17z
m1005 5 c-4 -3 -1 -13 6 -21 8 -11 8 -14 0 -9 -6 4 -14 1 -17 -5 -2 -7 -3 -2
-1 12 4 32 4 30 12 30 3 0 3 -3 0 -7z m-809 -39 c15 -15 14 -16 -6 -10 -12 4
-22 3 -22 -2 0 -5 -14 -8 -30 -7 -17 1 -33 -1 -35 -6 -3 -4 -12 -6 -20 -2 -9
3 -22 0 -30 -7 -8 -7 -15 -9 -15 -5 0 4 -6 3 -12 -3 -7 -5 -23 -8 -36 -6 -13
2 -21 0 -18 -4 2 -4 -5 -9 -17 -9 -22 -2 -22 -2 -2 13 11 8 25 12 32 10 7 -3
13 -1 13 4 0 5 7 6 17 3 11 -4 14 -3 9 6 -4 6 -4 11 1 10 4 -1 10 0 13 1 3 1
29 3 58 4 29 2 58 8 64 14 15 15 16 15 36 -4z m102 -4 c-8 -5 -19 -10 -25 -10
-5 0 -3 5 5 10 8 5 20 10 25 10 6 0 3 -5 -5 -10z m-1436 -15 c-4 -8 -8 -15
-10 -15 -2 0 -4 7 -4 15 0 8 4 15 10 15 5 0 7 -7 4 -15z m1556 11 c0 -2 -7 -7
-16 -10 -8 -3 -12 -2 -9 4 6 10 25 14 25 6z m626 -50 c5 -21 4 -27 -5 -22 -6
4 -9 11 -6 16 3 4 -3 6 -14 3 -23 -6 -38 25 -16 33 8 4 12 11 9 18 -4 6 0 4 9
-4 9 -8 19 -28 23 -44z m-696 11 c79 -20 136 -48 123 -61 -4 -4 0 -4 10 0 10
3 17 1 17 -6 0 -6 4 -9 9 -5 6 3 14 -3 20 -12 6 -10 11 -14 11 -10 0 21 230
-192 230 -213 0 -20 -248 -160 -283 -160 -7 0 -17 -4 -22 -9 -28 -27 -261 -81
-285 -66 -5 3 -11 1 -15 -5 -4 -6 -9 -9 -13 -6 -4 2 -56 7 -117 11 -107 7
-121 8 -195 20 -64 10 -116 35 -150 70 l-35 36 30 24 c17 13 36 24 43 25 6 0
12 5 12 10 0 6 6 10 13 10 16 0 130 90 123 97 -3 3 -23 -5 -43 -18 -21 -14
-51 -31 -68 -39 -16 -8 -34 -20 -40 -26 -5 -6 -35 -24 -65 -40 -30 -16 -64
-37 -74 -46 -11 -10 -25 -18 -32 -18 -7 0 -14 -3 -16 -8 -6 -13 -294 -142
-353 -158 -116 -30 -180 -32 -235 -7 -8 3 -17 7 -20 8 -54 15 -146 85 -112 85
5 0 15 18 22 40 12 36 30 54 30 30 0 -5 3 -9 8 -9 4 1 9 0 12 -1 46 -17 184
-21 234 -6 27 8 49 10 55 5 6 -5 9 -6 6 -2 -3 3 7 14 22 24 22 14 30 16 42 6
8 -7 12 -7 8 -1 -3 6 8 19 26 29 18 10 34 21 37 24 3 4 16 12 30 19 14 7 47
25 75 41 27 16 51 28 53 26 2 -1 15 8 29 21 14 13 32 24 38 24 7 0 16 7 19 16
4 9 13 14 21 10 8 -3 15 -1 15 5 0 5 14 15 30 20 17 6 30 15 30 21 0 5 4 7 9
3 5 -3 12 -1 16 5 3 5 15 10 25 10 10 0 20 4 22 10 2 5 15 11 30 12 15 1 26 7
25 13 -1 5 6 9 15 9 10 -1 15 3 11 9 -4 6 4 8 20 5 15 -3 24 -2 22 2 -3 5 2
10 9 13 8 3 17 1 19 -6 6 -16 43 6 39 23 -1 6 2 9 8 5 5 -3 10 -2 10 4 0 5 8
8 17 7 10 -2 24 4 32 11 8 8 22 12 32 10 11 -3 19 -2 19 2 0 4 10 7 23 8 12 1
36 4 52 8 84 19 185 24 235 12z m180 -23 c0 -8 -5 -12 -10 -9 -6 4 -8 11 -5
16 9 14 15 11 15 -7z m-606 -6 c-3 -4 -11 -5 -19 -1 -8 3 -15 0 -15 -7 0 -6
-4 -8 -10 -5 -5 3 -10 2 -10 -2 0 -5 -11 -10 -25 -11 -18 -1 -25 3 -25 16 0
15 2 15 10 2 9 -13 11 -13 20 0 5 8 10 11 10 7 0 -4 8 -4 17 2 20 11 54 11 47
-1z m1106 -10 c0 -4 -4 -8 -9 -8 -6 0 -12 4 -15 8 -3 5 1 9 9 9 8 0 15 -4 15
-9z m117 6 c12 -3 24 -12 27 -19 3 -8 -2 -11 -13 -8 -10 2 -23 -2 -30 -11 -7
-8 -19 -12 -28 -9 -12 5 -14 1 -8 -17 4 -13 3 -20 -2 -17 -5 3 -22 -1 -38 -9
-19 -10 -24 -10 -18 -2 6 7 22 32 37 56 27 43 34 46 73 36z m-2294 -19 c-3 -9
-8 -14 -10 -11 -3 3 -2 9 2 15 9 16 15 13 8 -4z m1732 -14 c-6 -5 -25 10 -25
20 0 5 6 4 14 -3 8 -7 12 -15 11 -17z m-675 -1 c0 -5 -5 -10 -11 -10 -5 0 -7
5 -4 10 3 6 8 10 11 10 2 0 4 -4 4 -10z m715 -9 c3 -5 2 -12 -3 -15 -5 -3 -9
1 -9 9 0 17 3 19 12 6z m583 -14 c9 -10 6 -13 -13 -13 -19 0 -22 3 -13 13 6 7
12 13 13 13 1 0 7 -6 13 -13z m-1507 -30 c-10 -9 -11 -8 -5 6 3 10 9 15 12 12
3 -3 0 -11 -7 -18z m1494 -7 c-3 -5 -2 -10 4 -10 5 0 12 6 14 13 4 9 8 8 16
-3 13 -19 -17 -33 -36 -18 -12 9 -9 28 3 28 3 0 2 -4 -1 -10z m-2358 -26 c-3
-3 -12 -4 -19 -1 -8 3 -5 6 6 6 11 1 17 -2 13 -5z m1888 -4 c-2 -3 5 -14 15
-23 13 -11 20 -12 24 -4 3 7 2 -1 -1 -17 -4 -19 -2 -27 5 -22 6 3 20 -7 31
-22 15 -22 17 -32 9 -40 -18 -18 -31 -14 -24 5 4 10 4 14 0 11 -10 -10 -32 16
-40 46 -3 14 -10 29 -15 32 -5 3 -6 -3 -3 -13 4 -15 3 -14 -7 2 -7 11 -19 24
-27 29 -10 6 -11 10 -3 16 15 8 42 9 36 0z m317 -2 c-14 -14 -44 -20 -36 -7 3
5 9 7 14 4 5 -3 11 -1 15 5 3 5 9 10 13 10 3 0 1 -5 -6 -12z m203 -39 c-5 -7
-11 -6 -21 2 -11 9 -12 15 -2 26 10 12 13 12 20 -1 5 -9 6 -21 3 -27z m-125 2
c0 -6 -4 -12 -8 -15 -5 -3 -9 1 -9 9 0 8 4 15 9 15 4 0 8 -4 8 -9z m101 -31
c-3 -19 -27 -70 -33 -70 -4 0 -8 -7 -8 -16 0 -14 -2 -14 -16 -3 -10 8 -12 15
-5 17 6 2 11 8 11 13 0 6 -4 7 -10 4 -17 -11 -11 2 17 34 23 26 46 37 44 21z
m-2420 -22 c-11 -11 -24 -17 -30 -14 -14 9 6 32 31 33 17 2 17 1 -1 -19z
m2492 -49 c3 -10 1 -17 -4 -13 -5 3 -9 -1 -10 -8 0 -11 -2 -11 -6 0 -4 10 -8
9 -19 -5 -11 -15 -12 -13 -2 19 11 38 32 42 41 7z m-13 -49 c0 -5 -2 -10 -4
-10 -3 0 -8 5 -11 10 -3 6 -1 10 4 10 6 0 11 -4 11 -10z m-140 -13 c0 -15 -46
-21 -55 -7 -3 5 3 7 15 5 11 -2 22 0 25 6 9 13 15 11 15 -4z m223 -2 c4 -8 3
-16 -1 -19 -4 -3 -9 4 -9 15 -2 23 3 25 10 4z m-2193 -41 c0 -8 -19 -13 -24
-6 -3 5 1 9 9 9 8 0 15 -2 15 -3z m-100 -24 c0 -5 -8 -10 -17 -11 -10 0 -26
-2 -36 -4 -9 -2 -15 1 -11 6 3 5 9 7 13 5 4 -3 13 -1 21 5 20 12 30 11 30 -1z
m57 4 c-8 -8 -48 -13 -43 -6 2 4 14 8 26 9 12 1 20 0 17 -3z m1953 -26 c0 -19
-16 -5 -17 14 -2 18 0 20 7 8 5 -8 10 -18 10 -22z m300 1 c0 -18 -18 -9 -23
12 -4 16 -3 18 9 8 8 -6 14 -15 14 -20z m-416 6 c3 -8 2 -14 -2 -13 -4 1 -24
-4 -45 -11 -21 -7 -41 -11 -44 -8 -3 3 13 11 36 17 23 6 41 15 41 20 0 15 7
12 14 -5z m482 -26 c29 -47 30 -59 4 -52 -18 5 -24 15 -21 36 0 4 -5 6 -11 5
-7 -2 -12 3 -10 11 1 7 -2 19 -7 25 -8 9 -6 13 5 13 9 0 27 -17 40 -38z
m-1798 10 c8 -12 9 -18 3 -14 -6 3 -11 0 -11 -8 0 -10 7 -13 20 -10 29 8 25
-9 -10 -39 -29 -26 -32 -26 -49 -10 -19 18 -8 33 18 25 12 -4 13 -3 3 4 -7 6
-12 14 -11 19 3 20 -2 35 -10 29 -6 -3 -8 -14 -6 -25 4 -21 -9 -27 -20 -10 -3
6 0 10 7 11 10 0 10 2 -1 6 -11 4 -8 10 10 24 31 24 41 24 57 -2z m1682 15 c0
-8 -19 -13 -24 -6 -3 5 1 9 9 9 8 0 15 -2 15 -3z m-1775 -51 c-11 -7 -23 -13
-28 -13 -4 0 -6 -4 -2 -9 3 -5 0 -13 -6 -17 -6 -3 -15 -1 -19 5 -5 9 -11 9
-23 -3 -22 -23 -41 -20 -19 3 9 10 19 18 22 17 3 0 15 5 26 12 12 6 24 9 27 5
4 -3 9 2 13 11 3 9 11 13 17 9 6 -4 3 -11 -8 -20z m1155 6 c0 -6 -4 -7 -10 -4
-5 3 -10 11 -10 16 0 6 5 7 10 4 6 -3 10 -11 10 -16z m429 -20 c-19 -11 -24
-3 -8 14 8 9 16 11 18 5 2 -6 -3 -14 -10 -19z m-142 -11 c-3 -8 -6 -5 -6 6 -1
11 2 17 5 13 3 -3 4 -12 1 -19z m184 7 c5 4 6 -1 3 -9 -3 -9 -10 -16 -15 -16
-14 0 -30 -73 -18 -85 7 -6 10 -6 9 0 -4 21 1 29 9 16 8 -12 11 -9 16 12 6 23
9 24 26 14 20 -12 26 -37 9 -37 -5 0 -10 5 -10 11 0 5 -5 7 -10 4 -6 -4 -8
-10 -6 -14 5 -7 -8 -11 -46 -12 -10 0 -17 -3 -17 -7 3 -17 -2 -23 -11 -17 -8
5 -7 11 1 21 6 8 8 14 5 14 -4 0 -4 6 1 13 17 27 10 53 -17 55 l-25 2 25 -20
c14 -11 20 -20 14 -20 -6 0 -18 8 -27 18 -22 24 -4 44 28 32 24 -9 45 4 41 24
-2 6 -1 8 1 3 3 -4 9 -5 14 -2z m-338 -9 c7 3 3 -1 -7 -10 -22 -18 -41 -11
-23 9 6 7 14 9 15 4 2 -5 9 -7 15 -3z m-1089 -20 c21 -9 47 -18 57 -19 11 -1
19 -5 19 -10 0 -4 4 -6 8 -3 5 3 21 2 37 -2 26 -7 27 -9 11 -25 -16 -16 -19
-16 -43 0 -20 13 -28 14 -31 5 -2 -6 -8 -12 -13 -12 -4 0 -6 6 -3 13 4 12 -17
28 -59 41 -10 3 -15 2 -12 -3 3 -5 2 -12 -3 -15 -5 -3 -9 0 -9 7 0 7 -4 20 -8
31 -5 11 -4 17 1 14 5 -2 27 -12 48 -22z m1120 11 c-2 -7 -14 -19 -27 -26 -21
-13 -21 -12 2 13 27 29 33 32 25 13z m-1183 -26 c-6 -10 -7 -21 -3 -25 3 -4
-1 -4 -10 -1 -14 6 -15 10 -5 26 15 25 31 25 18 0z m1590 -24 c-10 -9 -11 -8
-5 6 3 10 9 15 12 12 3 -3 0 -11 -7 -18z m-1873 -24 c-8 -10 -6 -13 5 -13 9 0
18 -4 22 -10 6 -10 -35 -57 -48 -52 -5 1 -5 -3 -1 -9 4 -7 0 -17 -8 -23 -8 -6
-20 -21 -27 -34 -7 -12 -16 -20 -22 -17 -5 4 -9 3 -8 -2 3 -18 -14 -52 -23
-47 -5 3 -9 0 -7 -7 5 -42 -2 -69 -18 -69 -15 0 -16 2 -3 10 11 7 12 12 3 21
-9 9 -15 6 -24 -14 -7 -15 -16 -24 -20 -21 -5 3 -9 -2 -9 -11 0 -10 -5 -13
-12 -9 -7 4 -8 3 -4 -5 4 -6 2 -18 -4 -26 -7 -8 -9 -15 -5 -15 4 0 2 -7 -5
-15 -7 -8 -16 -12 -21 -9 -15 9 -10 -13 6 -26 8 -7 15 -18 15 -24 0 -6 -9 0
-20 14 -15 19 -20 21 -20 8 0 -9 -6 -19 -12 -21 -8 -3 -6 -6 5 -6 16 -1 16 -3
-3 -23 -11 -12 -20 -28 -20 -35 0 -7 -8 -13 -17 -13 -15 0 -16 -2 -3 -10 12
-8 13 -13 3 -29 -11 -17 -10 -22 5 -29 9 -5 23 -7 31 -4 9 3 11 0 6 -7 -4 -8
-18 -10 -35 -6 -31 7 -51 -12 -29 -26 12 -7 11 -9 -1 -9 -13 0 -13 -1 0 -10
10 -6 11 -10 3 -10 -7 0 -13 -6 -13 -14 0 -8 -9 -21 -20 -29 -11 -8 -17 -17
-13 -20 3 -4 1 -7 -6 -7 -7 0 -10 -4 -7 -9 4 -5 1 -11 -6 -13 -6 -2 -12 -23
-12 -45 -1 -23 -4 -39 -8 -36 -5 2 -8 -4 -8 -15 0 -10 -9 -28 -20 -40 -12 -12
-16 -22 -11 -22 6 0 8 -6 5 -14 -3 -8 0 -25 6 -38 11 -22 11 -22 -10 2 -12 14
-19 19 -15 13 3 -7 -1 -23 -9 -35 -13 -18 -16 -19 -16 -6 0 9 4 19 10 23 5 3
7 11 4 18 -2 7 3 33 12 57 8 25 18 56 20 69 6 30 116 306 145 363 12 24 27 46
33 50 6 4 7 8 2 8 -10 0 12 36 66 107 22 29 45 50 51 46 6 -3 7 -1 3 5 -8 14
62 114 75 106 5 -3 6 1 3 9 -3 8 1 21 8 28 7 8 14 22 16 31 1 10 10 34 18 54
12 28 18 34 24 24 5 -9 4 -20 -2 -27z m79 15 c-3 -8 -6 -5 -6 6 -1 11 2 17 5
13 3 -3 4 -12 1 -19z m283 10 c0 -4 -4 -8 -9 -8 -5 0 -18 -3 -28 -7 -15 -6
-16 -4 -6 8 13 17 43 21 43 7z m640 8 c0 -2 -7 -7 -16 -10 -8 -3 -12 -2 -9 4
6 10 25 14 25 6z m-455 -24 c0 -6 4 -14 8 -19 5 -4 7 -1 5 7 -3 15 6 16 152
10 32 -1 33 -2 12 -11 -13 -5 -28 -7 -33 -3 -5 3 -9 1 -9 -4 0 -13 -49 -22
-56 -10 -4 5 -17 7 -31 3 -19 -4 -23 -3 -17 7 6 11 5 11 -8 0 -12 -9 -18 -10
-23 -2 -4 6 -14 9 -22 6 -8 -3 -11 -1 -8 4 3 6 1 10 -5 10 -6 0 -9 4 -6 9 8
12 41 7 41 -7z m813 -2 c-9 -13 -14 -16 -20 -7 -4 6 -2 15 5 19 21 14 28 9 15
-12z m285 4 c3 -3 3 -12 0 -20 -4 -11 -9 -12 -19 -3 -8 6 -11 15 -8 20 6 10
18 12 27 3z m472 -13 c3 -5 2 -12 -3 -15 -5 -3 -9 1 -9 9 0 17 3 19 12 6z
m-1959 -40 c-5 -8 -11 -7 -20 2 -10 9 -11 14 -2 19 14 9 30 -7 22 -21z m1459
8 c-4 -5 -13 -9 -21 -9 -12 0 -14 -7 -9 -28 5 -26 3 -28 -22 -26 -40 2 -40 3
-14 24 13 11 20 20 17 20 -4 0 -1 6 5 13 14 15 52 21 44 6z m192 4 c-4 -3 1
-12 11 -20 13 -10 14 -13 2 -11 -25 5 -36 38 -13 38 4 0 3 -3 0 -7z m-510 -9
c-3 -3 -12 -4 -19 -1 -8 3 -5 6 6 6 11 1 17 -2 13 -5z m393 -17 c0 -7 -4 -6
-10 3 -8 13 -10 13 -10 -1 0 -9 -7 -22 -15 -29 -12 -10 -12 -7 1 19 15 29 34
34 34 8z m-1100 -7 c6 -11 8 -20 6 -20 -3 0 -10 9 -16 20 -6 11 -8 20 -6 20 3
0 10 -9 16 -20z m130 14 c0 -8 -19 -13 -24 -6 -3 5 1 9 9 9 8 0 15 -2 15 -3z
m-83 -26 c-3 -8 -6 -5 -6 6 -1 11 2 17 5 13 3 -3 4 -12 1 -19z m607 16 c21 -8
20 -17 -2 -30 -15 -10 -18 -8 -18 12 0 13 1 24 2 24 1 0 9 -3 18 -6z m376 -9
c11 -13 10 -14 -4 -9 -9 3 -16 10 -16 15 0 13 6 11 20 -6z m528 -3 c5 -17 -13
-15 -27 2 -10 12 -9 14 5 12 10 -2 20 -8 22 -14z m-1706 -24 c-6 -6 -15 -8
-19 -4 -4 4 -1 11 7 16 19 12 27 3 12 -12z m872 7 c3 -8 1 -15 -4 -15 -6 0
-10 7 -10 15 0 8 2 15 4 15 2 0 6 -7 10 -15z m-806 -4 c11 -7 11 -9 -1 -14 -9
-3 -18 1 -21 9 -6 16 2 18 22 5z m1006 -15 c-4 -10 -34 -19 -34 -10 0 16 15
32 25 28 8 -3 12 -11 9 -18z m-1138 -6 c0 -11 -4 -20 -8 -20 -10 0 -11 24 -1
33 9 9 9 10 9 -13z m894 11 c0 -5 -7 -12 -16 -15 -14 -5 -15 -4 -4 9 14 17 20
19 20 6z m898 -11 c7 -11 9 -20 4 -20 -4 0 -15 9 -25 20 -11 14 -13 20 -4 20
7 0 18 -9 25 -20z m-633 -21 c-4 -5 -12 -9 -18 -8 -9 0 -8 2 1 6 6 2 9 10 6
15 -4 7 -2 8 5 4 6 -4 9 -12 6 -17z m-681 -10 c-30 -12 -37 -10 -24 5 6 8 19
12 27 9 14 -6 14 -8 -3 -14z m622 9 c5 -7 3 -8 -6 -3 -8 5 -11 3 -8 -6 3 -8
12 -13 19 -11 11 3 11 1 2 -9 -9 -9 -10 -16 -2 -26 7 -8 8 -13 1 -13 -10 0
-19 16 -20 34 0 5 -8 13 -17 19 -12 6 -20 4 -30 -10 -8 -10 -15 -20 -15 -23 0
-5 -60 -9 -60 -4 0 2 14 10 30 19 17 9 30 12 30 8 0 -4 6 1 13 12 8 10 19 15
25 11 6 -3 13 -2 17 4 8 13 12 13 21 -2z m-1106 -22 c0 -2 -7 -9 -15 -16 -13
-11 -14 -10 -9 4 5 14 24 23 24 12z m1470 -27 c0 -5 -5 -9 -12 -9 -6 0 -8 3
-5 7 4 3 1 13 -6 22 -11 14 -10 14 6 2 9 -7 17 -17 17 -22z m300 21 c0 -5 -5
-10 -11 -10 -5 0 -7 5 -4 10 3 6 8 10 11 10 2 0 4 -4 4 -10z m59 -38 c7 -24 6
-30 -4 -26 -8 3 -11 12 -8 20 3 8 2 14 -3 12 -10 -3 -14 5 -14 29 0 25 18 3
29 -35z m-2039 14 c0 -3 -4 -8 -10 -11 -5 -3 -10 -1 -10 4 0 6 5 11 10 11 6 0
10 -2 10 -4z m1157 -30 c-8 -16 -14 -21 -19 -13 -4 7 0 17 9 25 22 16 23 16
10 -12z m55 7 c-6 -3 -10 -8 -8 -12 3 -4 -1 -8 -9 -8 -13 0 -12 4 2 19 9 10
19 15 22 12 3 -4 0 -9 -7 -11z m153 7 c-3 -5 -12 -10 -18 -10 -7 0 -6 4 3 10
19 12 23 12 15 0z m-615 -10 c0 -5 -7 -10 -16 -10 -8 0 -12 5 -9 10 3 6 10 10
16 10 5 0 9 -4 9 -10z m913 -11 c-4 -15 -8 -17 -14 -8 -6 11 4 28 18 29 0 0
-1 -9 -4 -21z m-1003 -1 c0 -4 -7 -8 -15 -8 -8 0 -15 4 -15 8 0 5 7 9 15 9 8
0 15 -4 15 -9z m467 -14 c-9 -9 -28 6 -21 18 4 6 10 6 17 -1 6 -6 8 -13 4 -17z
m473 22 c0 -3 -4 -8 -10 -11 -5 -3 -10 -1 -10 4 0 6 5 11 10 11 6 0 10 -2 10
-4z m-1820 -17 c0 -5 -4 -7 -10 -4 -5 3 -10 1 -10 -6 0 -7 -3 -10 -6 -6 -8 7
4 27 17 27 5 0 9 -5 9 -11z m34 -8 c3 -5 -1 -11 -9 -15 -9 -3 -15 0 -15 9 0
16 16 20 24 6z m1636 -11 c6 -11 8 -20 6 -20 -3 0 -10 9 -16 20 -6 11 -8 20
-6 20 3 0 10 -9 16 -20z m607 -4 c-3 -8 -1 -16 5 -18 6 -2 12 -16 13 -31 2
-15 -1 -25 -6 -21 -5 3 -9 11 -9 19 0 8 -5 17 -10 20 -6 4 -9 2 -8 -3 2 -6 -1
-12 -6 -13 -5 -2 -10 4 -12 13 -1 9 5 19 13 22 8 3 11 10 8 16 -3 5 -1 10 5
10 7 0 10 -6 7 -14z m-464 -28 c12 2 18 -1 15 -9 -2 -7 -14 -13 -26 -14 -12
-1 -20 1 -17 3 3 3 -3 15 -12 26 -17 20 -17 20 1 6 11 -8 28 -14 39 -12z
m-153 8 c0 -3 -4 -8 -10 -11 -5 -3 -10 -1 -10 4 0 6 5 11 10 11 6 0 10 -2 10
-4z m60 -12 c0 -8 -5 -12 -10 -9 -6 4 -8 11 -5 16 9 14 15 11 15 -7z m-352
-18 c-7 -8 -15 -12 -17 -11 -5 6 10 25 20 25 5 0 4 -6 -3 -14z m-1443 -6 c-3
-5 -12 -10 -18 -10 -7 0 -6 4 3 10 19 12 23 12 15 0z m2300 1 c3 -5 0 -13 -6
-17 -7 -4 -9 -3 -5 4 3 5 0 13 -6 15 -9 4 -10 6 -1 6 6 1 14 -3 18 -8z m-555
-31 c0 -5 -4 -10 -10 -10 -5 0 -10 5 -10 10 0 6 5 10 10 10 6 0 10 -4 10 -10z
m-436 -15 c-4 -8 -10 -15 -15 -15 -4 0 -6 7 -3 15 4 8 10 15 15 15 4 0 6 -7 3
-15z m1080 -23 c16 -80 17 -92 1 -86 -13 5 -13 9 -3 22 9 11 9 13 1 9 -6 -4
-14 -3 -18 3 -3 5 -2 10 4 10 7 0 7 8 1 24 -5 13 -6 27 -3 30 4 3 1 6 -6 6 -7
0 -9 5 -6 10 10 16 23 3 29 -28z m-764 22 c0 -8 -19 -13 -24 -6 -3 5 1 9 9 9
8 0 15 -2 15 -3z m60 2 c0 -2 -9 -6 -20 -9 -11 -3 -20 -1 -20 4 0 5 9 9 20 9
11 0 20 -2 20 -4z m630 -6 c0 -5 -2 -10 -4 -10 -3 0 -8 5 -11 10 -3 6 -1 10 4
10 6 0 11 -4 11 -10z m-2093 -25 c0 -8 -4 -12 -9 -9 -5 3 -6 10 -3 15 9 13 12
11 12 -6z m793 11 c0 -3 -4 -8 -10 -11 -5 -3 -10 -1 -10 4 0 6 5 11 10 11 6 0
10 -2 10 -4z m355 -6 c3 -5 1 -10 -4 -10 -6 0 -11 5 -11 10 0 6 2 10 4 10 3 0
8 -4 11 -10z m222 -22 c-3 -8 -6 -5 -6 6 -1 11 2 17 5 13 3 -3 4 -12 1 -19z
m-1637 2 c0 -5 -4 -10 -10 -10 -5 0 -10 5 -10 10 0 6 5 10 10 10 6 0 10 -4 10
-10z m380 6 c0 -11 -19 -15 -25 -6 -3 5 1 10 9 10 9 0 16 -2 16 -4z m194 -15
c17 -19 17 -19 -1 -15 -11 3 -20 12 -20 20 0 18 0 18 21 -5z m891 2 c-1 -10 4
-25 12 -35 22 -25 -2 -33 -27 -8 -11 11 -19 28 -19 38 1 16 2 16 6 -1 2 -9 8
-15 13 -12 5 3 7 12 3 20 -3 8 -1 15 5 15 6 0 9 -8 7 -17z m-1262 -13 c43 0
44 -15 1 -16 -24 0 -44 0 -44 2 0 1 3 10 7 20 4 11 8 13 11 6 2 -7 13 -12 25
-12z m1581 -1 c-3 -5 -10 -7 -15 -4 -5 4 -9 -1 -9 -9 0 -19 11 -21 27 -5 8 8
13 7 18 -3 5 -7 4 -10 0 -5 -5 4 -17 0 -27 -10 -10 -9 -18 -14 -18 -12 0 2 -4
18 -9 35 -8 29 -7 30 15 26 13 -2 21 -8 18 -13z m-101 -4 c-3 -9 -8 -14 -10
-11 -3 3 -2 9 2 15 9 16 15 13 8 -4z m-1006 -10 c0 -8 -4 -12 -9 -9 -5 3 -6
10 -3 15 9 13 12 11 12 -6z m1263 0 c0 -1 -6 -7 -13 -13 -10 -8 -13 -6 -13 7
0 11 6 17 13 14 7 -3 13 -6 13 -8z m-1825 -33 c-8 -9 -35 20 -28 31 4 6 11 3
19 -8 8 -10 12 -21 9 -23z m1302 23 c0 -8 -4 -15 -9 -15 -4 0 -8 7 -8 15 0 8
4 15 8 15 5 0 9 -7 9 -15z m469 -7 c4 -6 3 -8 -4 -4 -5 3 -13 0 -15 -6 -3 -8
-6 -6 -6 5 -1 19 14 23 25 5z m-1494 -40 c-8 -8 -9 -4 -5 13 4 13 8 18 11 10
2 -7 -1 -18 -6 -23z m128 12 c-6 -11 -15 -20 -20 -20 -6 0 -5 9 2 20 7 11 16
20 21 20 4 0 3 -9 -3 -20z m-345 0 c3 -6 -4 -10 -17 -10 -18 0 -20 2 -8 10 19
12 18 12 25 0z m41 -9 c0 -15 -3 -17 -13 -9 -7 6 -10 14 -7 19 9 15 20 10 20
-10z m2054 9 c0 -5 -2 -10 -4 -10 -3 0 -8 5 -11 10 -3 6 -1 10 4 10 6 0 11 -4
11 -10z m-1962 -27 c0 -22 -1 -22 -14 -6 -17 23 -17 30 0 30 8 0 14 -11 14
-24z m2144 -5 c3 -16 1 -31 -4 -34 -5 -3 -8 -2 -7 3 4 23 -4 34 -33 46 l-32
13 36 0 c32 0 37 -3 40 -28z m-2107 12 c3 -6 -1 -7 -9 -4 -18 7 -21 14 -7 14
6 0 13 -4 16 -10z m1266 -13 c-10 -9 -11 -8 -5 6 3 10 9 15 12 12 3 -3 0 -11
-7 -18z m-1071 5 c0 -4 -12 -8 -27 -9 -24 -1 -25 -1 -8 7 26 11 35 12 35 2z
m-425 -32 c3 -6 -1 -7 -9 -4 -18 7 -21 14 -7 14 6 0 13 -4 16 -10z m55 -19 c0
-4 -9 -7 -20 -8 -19 -2 -26 8 -14 20 7 7 34 -2 34 -12z m-124 -3 c4 -6 3 -8
-4 -4 -6 3 -13 2 -17 -4 -4 -6 -11 -7 -17 -4 -6 4 -5 10 3 15 19 12 27 11 35
-3z m454 -3 c0 -2 -6 -5 -13 -8 -8 -3 -14 1 -14 8 0 7 6 11 14 8 7 -3 13 -6
13 -8z m1910 1 c0 -2 -8 -10 -17 -17 -16 -13 -17 -12 -4 4 13 16 21 21 21 13z
m-2414 -43 c-10 -10 -19 5 -10 18 6 11 8 11 12 0 2 -7 1 -15 -2 -18z m183 -5
c17 -1 31 -5 31 -9 0 -10 -30 -33 -30 -23 0 5 -5 2 -10 -6 -8 -13 -10 -12 -10
3 0 9 5 17 12 17 6 0 9 3 6 6 -4 3 -16 1 -27 -5 -17 -10 -20 -9 -14 5 4 11 2
15 -4 11 -6 -4 -14 0 -17 8 -4 12 -2 13 13 5 10 -5 33 -11 50 -12z m136 -8 c3
-5 1 -10 -4 -10 -6 0 -11 5 -11 10 0 6 2 10 4 10 3 0 8 -4 11 -10z m945 6 c0
-3 -4 -8 -10 -11 -5 -3 -10 -1 -10 4 0 6 5 11 10 11 6 0 10 -2 10 -4z m-1200
-25 c0 -4 -6 -15 -13 -25 -12 -16 -14 -16 -14 -2 0 9 5 16 10 16 5 0 6 7 3 16
-3 8 -2 12 4 9 6 -3 10 -10 10 -14z m-60 -20 c0 -6 -4 -13 -10 -16 -5 -3 -10
1 -10 9 0 9 5 16 10 16 6 0 10 -4 10 -9z m1660 4 c0 -1 -9 -10 -19 -19 -19
-17 -19 -17 -16 1 2 10 4 18 4 19 2 2 31 1 31 -1z m-103 -20 c0 -8 -4 -12 -9
-9 -4 3 -8 9 -8 15 0 5 4 9 8 9 5 0 9 -7 9 -15z m38 5 c-3 -5 -1 -10 5 -10 6
0 9 -4 6 -8 -2 -4 -1 -14 5 -22 6 -11 9 -12 9 -2 0 7 4 11 9 7 5 -3 12 -1 16
5 4 7 12 7 25 0 11 -6 24 -9 31 -8 6 2 14 -3 16 -9 3 -10 -12 -12 -59 -9 -69
4 -101 13 -92 27 3 5 10 6 16 3 7 -5 9 -2 5 8 -3 9 -3 19 0 22 10 10 15 7 8
-4z m575 6 c0 -3 -4 -8 -10 -11 -5 -3 -10 -1 -10 4 0 6 5 11 10 11 6 0 10 -2
10 -4z m-2070 -32 c0 -8 -5 -12 -10 -9 -6 4 -8 11 -5 16 9 14 15 11 15 -7z
m40 2 c0 -2 -7 -7 -16 -10 -8 -3 -12 -2 -9 4 6 10 25 14 25 6z m1373 -3 c-7
-2 -13 -12 -13 -20 0 -9 -3 -14 -6 -10 -10 10 4 37 18 36 10 0 10 -2 1 -6z
m417 0 c0 -1 -10 -7 -21 -14 -17 -9 -20 -8 -14 2 6 9 3 11 -9 6 -9 -4 -15 -3
-12 2 5 7 56 11 56 4z m84 -17 c-3 -9 -13 -16 -21 -16 -8 0 -11 5 -7 12 5 8 2
9 -10 5 -10 -4 -15 -3 -11 4 4 5 15 7 26 4 12 -4 19 -2 19 6 0 7 2 10 5 7 3
-3 3 -13 -1 -22z m-2064 -1 c-7 -8 -16 -12 -21 -9 -13 8 -1 24 18 24 13 0 13
-3 3 -15z m1527 -7 c-3 -8 -6 -5 -6 6 -1 11 2 17 5 13 3 -3 4 -12 1 -19z m358
2 c-3 -5 -1 -11 5 -15 5 -3 10 1 10 10 0 15 1 15 16 0 9 -9 22 -14 30 -11 7 3
15 0 18 -7 2 -7 5 -5 5 4 1 9 8 20 17 23 15 6 15 4 3 -11 -8 -9 -9 -14 -2 -10
16 10 41 -2 45 -21 3 -14 7 -12 26 8 24 26 62 40 41 14 -6 -8 -8 -14 -3 -15
48 -4 70 -19 28 -19 -16 0 -35 -4 -43 -9 -8 -5 -24 -6 -36 -1 -12 5 -35 11
-51 14 -16 2 -40 8 -54 11 -14 4 -37 7 -52 8 -15 0 -24 5 -21 11 4 6 -1 7 -13
2 -18 -7 -18 -6 1 12 19 19 41 20 30 2z m-1835 0 c0 -5 -7 -7 -15 -4 -8 4 -15
8 -15 10 0 2 7 4 15 4 8 0 15 -4 15 -10z m1100 6 c0 -2 -9 -6 -20 -9 -11 -3
-18 -1 -14 4 5 9 34 13 34 5z m-1269 -42 c-11 -15 -18 -31 -14 -37 3 -6 1 -7
-5 -3 -7 4 -12 2 -12 -5 0 -7 -3 -9 -6 -6 -7 6 42 77 52 77 3 0 -4 -12 -15
-26z m339 -6 c0 -6 -8 -4 -18 5 -10 10 -22 14 -27 10 -4 -5 -5 -2 -1 5 9 14
46 -2 46 -20z m1960 2 c0 -5 -4 -10 -10 -10 -5 0 -10 5 -10 10 0 6 5 10 10 10
6 0 10 -4 10 -10z m-2053 -23 c-2 -6 -12 -11 -24 -12 -14 -1 -19 3 -16 16 3
11 11 15 24 12 11 -3 18 -10 16 -16z m2343 -41 c-9 -43 -16 -56 -29 -56 -28 0
-81 21 -81 32 0 5 6 6 13 1 17 -11 38 -13 32 -3 -3 4 11 20 30 34 19 15 35 34
35 43 0 9 3 14 6 10 3 -3 1 -31 -6 -61z m-268 21 c-5 -18 -7 -19 -10 -4 -2 9
-9 17 -15 17 -7 0 -6 4 3 9 20 14 29 5 22 -22z m-2259 6 c2 6 7 10 10 7 4 -3
-5 -19 -18 -34 -17 -20 -25 -24 -25 -13 0 8 6 18 13 20 7 4 3 8 -10 12 -13 4
-23 12 -23 17 0 6 11 3 24 -6 18 -11 26 -12 29 -3z m1107 -11 c0 -8 -3 -12 -7
-9 -3 4 -11 3 -17 -2 -18 -14 -86 -30 -86 -20 0 5 5 9 10 9 6 0 9 3 9 8 -3 19
2 23 16 12 11 -9 15 -9 15 -1 0 7 5 9 10 6 6 -3 10 0 10 8 0 10 7 13 20 10 11
-3 20 -12 20 -21z m527 11 c0 -6 -10 -9 -25 -7 -23 5 -24 3 -11 -12 13 -16 12
-16 -18 -1 -40 21 -44 21 -36 0 5 -14 3 -15 -7 -6 -15 14 -3 36 16 29 8 -3 14
-2 14 2 0 4 15 7 33 7 19 0 34 -5 34 -12z m77 8 c5 -1 6 -4 3 -7 -3 -4 -2 -15
4 -26 17 -32 18 -56 3 -62 -8 -3 -14 -11 -14 -18 0 -11 2 -11 8 0 6 9 12 5 20
-13 7 -15 8 -24 3 -21 -5 4 -12 0 -15 -6 -3 -7 -3 -2 0 11 3 13 2 21 -3 18 -5
-3 -15 -2 -23 3 -13 8 -13 13 -2 31 11 17 11 20 0 13 -10 -6 -10 -4 1 9 11 15
11 18 -7 24 -12 5 -22 13 -22 18 -1 6 -5 9 -9 8 -4 -1 -8 4 -8 11 0 11 10 12
61 7z m206 -16 c14 -3 34 -7 45 -9 11 -2 47 -11 81 -20 33 -8 70 -17 83 -19
13 -2 32 -14 42 -28 12 -15 17 -17 13 -6 -3 9 -1 17 5 17 6 0 11 -5 11 -11 0
-5 4 -8 9 -4 11 6 31 2 242 -54 86 -22 174 -43 195 -47 22 -3 42 -8 45 -10 15
-9 121 -18 199 -17 141 1 259 55 299 136 12 23 21 38 21 32 0 -5 5 -50 11
-100 19 -170 11 -383 -22 -551 -5 -28 -12 -64 -15 -80 -8 -48 -55 -198 -65
-208 -5 -6 -9 -16 -9 -23 0 -30 -135 -288 -202 -387 -29 -41 -114 -153 -143
-186 -53 -62 -235 -243 -239 -239 -2 2 -1 37 3 77 4 47 3 79 -4 87 -15 20 -87
55 -98 48 -6 -4 -7 -1 -2 6 5 10 -4 11 -39 7 -26 -2 -48 0 -52 6 -4 6 -10 5
-15 -3 -6 -11 -9 -9 -9 7 0 11 3 24 8 28 4 4 7 11 7 14 0 16 28 72 36 72 5 0
6 7 3 15 -4 8 -1 15 5 15 6 0 11 4 11 9 0 9 90 173 100 181 9 7 40 76 40 87 0
10 -36 56 -42 53 -2 -1 -21 3 -43 8 -43 12 -80 20 -135 29 -121 19 -183 67
-179 137 1 22 5 46 8 51 3 6 7 18 8 28 3 19 122 258 133 267 12 10 40 91 40
117 0 17 -12 38 -35 60 -19 19 -35 31 -35 28 0 -3 -6 -1 -12 5 -7 6 -62 43
-123 83 -185 123 -233 158 -282 206 -43 41 -73 81 -73 96 0 6 131 -1 170 -10z
m-937 -38 c4 3 7 1 7 -5 0 -18 -15 -15 -41 9 l-24 20 26 -15 c14 -9 29 -13 32
-9z m1387 3 c0 -5 -2 -10 -4 -10 -3 0 -8 5 -11 10 -3 6 -1 10 4 10 6 0 11 -4
11 -10z m-2170 -31 c0 -5 -4 -9 -8 -9 -5 0 -9 7 -9 15 0 8 4 12 9 9 4 -3 8 -9
8 -15z m1264 0 c24 3 32 -1 32 -19 0 -11 -6 -22 -12 -24 -8 -3 -10 3 -6 16 4
15 2 19 -8 13 -12 -7 -30 10 -30 30 0 6 4 4 9 -3 4 -8 11 -13 15 -13z m-1580
-4 c-4 -8 -8 -15 -10 -15 -2 0 -4 7 -4 15 0 8 4 15 10 15 5 0 7 -7 4 -15z m74
-10 c-3 -3 -9 2 -12 12 -6 14 -5 15 5 6 7 -7 10 -15 7 -18z m1602 -30 c0 -2
-7 -5 -15 -9 -9 -3 -15 0 -15 9 0 9 6 12 15 9 8 -4 15 -7 15 -9z m-1596 -11
c3 -8 2 -12 -4 -9 -6 3 -10 10 -10 16 0 14 7 11 14 -7z m186 0 c0 -8 -4 -12
-10 -9 -5 3 -10 10 -10 16 0 5 5 9 10 9 6 0 10 -7 10 -16z m73 -1 c-4 -10 -2
-14 5 -9 6 3 13 2 16 -3 4 -5 -1 -8 -9 -7 -20 3 -28 13 -20 25 10 17 15 13 8
-6z m1184 11 c-3 -3 -12 -4 -19 -1 -8 3 -5 6 6 6 11 1 17 -2 13 -5z m383 -19
c14 -19 14 -19 -2 -6 -10 7 -18 18 -18 24 0 6 1 8 3 6 1 -2 9 -13 17 -24z
m-1445 6 c3 -5 2 -12 -3 -15 -5 -3 -9 1 -9 9 0 17 3 19 12 6z m-435 -5 c0 -2
-7 -7 -16 -10 -8 -3 -12 -2 -9 4 6 10 25 14 25 6z m860 -6 c0 -5 -4 -10 -10
-10 -5 0 -10 5 -10 10 0 6 5 10 10 10 6 0 10 -4 10 -10z m175 0 c-3 -5 -12
-10 -18 -10 -7 0 -6 4 3 10 19 12 23 12 15 0z m-835 -16 c0 -8 -4 -12 -10 -9
-5 3 -10 10 -10 16 0 5 5 9 10 9 6 0 10 -7 10 -16z m1561 -7 c-10 -9 -11 -8
-5 6 3 10 9 15 12 12 3 -3 0 -11 -7 -18z m-1671 -6 c0 -4 -7 -8 -15 -8 -16 0
-20 9 -9 20 8 8 24 -1 24 -12z m890 3 c0 -8 -19 -13 -24 -6 -3 5 1 9 9 9 8 0
15 -2 15 -3z m-47 -19 c-3 -9 -8 -14 -10 -11 -3 3 -2 9 2 15 9 16 15 13 8 -4z
m872 -8 c6 -5 0 -7 -13 -4 -19 5 -21 3 -11 -9 6 -8 9 -14 5 -14 -3 0 -9 0 -13
0 -5 0 -8 6 -9 13 0 17 18 39 25 30 3 -4 11 -12 16 -16z m-1489 -14 c16 -9 24
-9 33 0 10 9 11 8 6 -5 -4 -10 -10 -18 -14 -18 -10 0 -80 26 -85 31 -10 10 40
3 60 -8z m429 7 c3 -5 1 -10 -4 -10 -6 0 -11 5 -11 10 0 6 2 10 4 10 3 0 8 -4
11 -10z m-745 -15 c0 -8 -7 -15 -15 -15 -9 0 -12 6 -9 15 4 8 10 15 15 15 5 0
9 -7 9 -15z m1739 12 c-2 -1 -13 -9 -24 -17 -19 -14 -19 -14 -6 3 7 9 18 17
24 17 6 0 8 -1 6 -3z m-1619 -15 c0 -5 -7 -9 -15 -9 -8 0 -12 4 -9 9 3 4 9 8
15 8 5 0 9 -4 9 -8z m335 -13 c-10 -15 -25 -10 -19 6 4 8 10 12 15 9 5 -3 7
-10 4 -15z m432 1 c3 -11 9 -17 14 -14 5 3 6 -2 2 -12 -5 -15 -7 -14 -16 2
-15 27 -14 27 -36 12 -12 -8 -18 -18 -13 -22 4 -5 0 -7 -8 -6 -29 4 -51 0 -45
-9 3 -5 -5 -11 -17 -13 -16 -2 -22 -9 -21 -23 1 -11 0 -14 -3 -7 -5 10 -9 10
-20 1 -8 -7 -17 -9 -20 -6 -8 8 21 37 37 37 7 0 9 3 6 6 -8 9 55 43 66 37 5
-3 15 4 23 16 19 26 44 27 51 1z m947 -29 c-2 -3 -10 4 -18 14 -12 17 -13 17
-19 -6 -6 -19 -9 -21 -16 -10 -8 12 -12 12 -24 2 -10 -8 -17 -9 -22 -1 -3 5
-1 10 5 10 7 0 9 7 6 16 -6 15 -4 15 18 0 23 -15 25 -14 31 4 6 20 7 20 25 -2
10 -13 16 -25 14 -27z m-499 1 c-3 -3 -11 0 -18 7 -9 10 -8 11 6 5 10 -3 15
-9 12 -12z m306 -15 c-10 -9 -11 -8 -5 6 3 10 9 15 12 12 3 -3 0 -11 -7 -18z
m343 7 c3 -8 2 -12 -4 -9 -6 3 -10 10 -10 16 0 14 7 11 14 -7z m-1838 -16 c-1
-30 -21 -33 -21 -3 0 14 5 25 11 25 6 0 11 -10 10 -22z m1404 12 c8 -5 11 -10
5 -10 -5 0 -17 5 -25 10 -8 5 -10 10 -5 10 6 0 17 -5 25 -10z m-1645 -29 c2
-12 0 -19 -5 -16 -4 3 -10 -1 -13 -7 -4 -10 -2 23 2 51 2 10 12 -8 16 -28z
m91 5 c-1 -23 -2 -23 -17 -8 -18 19 -15 32 6 32 7 0 12 -10 11 -24z m824 14
c0 -5 -5 -10 -11 -10 -5 0 -7 5 -4 10 3 6 8 10 11 10 2 0 4 -4 4 -10z m1204
-16 c5 -17 12 -24 21 -20 8 3 17 0 21 -6 4 -7 3 -8 -4 -4 -7 4 -12 2 -12 -4 0
-7 -6 -8 -19 -1 -10 6 -20 9 -22 6 -2 -2 -5 10 -5 26 -2 36 12 38 20 3z
m-1950 -6 c-3 -5 -10 -6 -15 -3 -5 4 -9 1 -9 -4 0 -6 5 -11 11 -11 5 0 7 -5 4
-10 -9 -15 -25 -2 -25 20 0 12 7 18 19 17 11 0 17 -5 15 -9z m1526 2 c0 -5 -5
-10 -11 -10 -5 0 -7 5 -4 10 3 6 8 10 11 10 2 0 4 -4 4 -10z m210 -1 c12 -8
10 -9 -7 -4 -17 5 -23 2 -23 -9 0 -9 5 -16 11 -16 5 0 7 -5 3 -11 -9 -16 -28
17 -20 37 6 17 16 18 36 3z m299 -23 c-3 -3 -11 5 -18 17 -13 21 -12 21 5 5
10 -10 16 -20 13 -22z m-1430 -19 c-6 -13 -26 -30 -45 -37 -19 -8 -34 -18 -34
-23 0 -5 -6 -7 -13 -4 -8 3 -21 -9 -32 -29 -10 -18 -22 -31 -26 -28 -5 3 -9
-2 -9 -11 0 -11 -5 -15 -14 -12 -10 4 -13 1 -9 -8 3 -8 10 -12 17 -8 7 3 6 1
-1 -7 -11 -12 -15 -11 -27 5 -16 22 -12 35 10 35 8 0 13 5 12 12 -3 11 2 13
34 17 6 0 9 4 5 7 -6 6 23 44 35 44 4 0 19 11 34 25 14 13 30 22 35 19 5 -3
12 2 15 10 3 9 10 16 15 16 5 0 4 -11 -2 -23z m1501 -24 c0 -9 -19 -1 -38 16
-33 28 -26 35 8 9 17 -12 30 -23 30 -25z m-2265 17 c-5 -9 24 -25 40 -21 6 2
7 -1 3 -4 -4 -4 -3 -15 2 -25 6 -12 5 -17 -5 -17 -7 0 -11 6 -8 13 2 7 -7 20
-21 29 -24 16 -39 54 -16 40 6 -4 8 -10 5 -15z m1965 0 c0 -9 -20 -35 -20 -26
0 4 -12 1 -26 -9 -15 -9 -24 -12 -20 -7 4 7 -1 9 -14 7 -11 -2 -18 0 -15 6 4
5 17 9 31 9 13 0 24 6 24 13 0 7 9 13 20 13 11 0 20 -3 20 -6z m158 -25 c-3
-3 -9 2 -12 12 -6 14 -5 15 5 6 7 -7 10 -15 7 -18z m-1723 -3 c-3 -3 -11 0
-18 7 -9 10 -8 11 6 5 10 -3 15 -9 12 -12z m1461 1 c0 -10 5 -17 12 -15 6 1
12 -2 12 -7 0 -13 -43 -22 -54 -11 -7 7 -6 10 2 10 7 0 12 9 12 20 0 11 4 20
9 20 5 0 8 -8 7 -17z m-1300 -2 c-4 -5 -1 -11 6 -13 6 -2 8 -10 4 -17 -6 -9
-11 -9 -21 -1 -15 12 -10 40 7 40 5 0 7 -4 4 -9z m1540 1 c-9 -15 30 -40 47
-31 12 7 14 5 10 -12 -4 -14 -8 -17 -13 -9 -10 15 -21 15 -31 -2 -7 -10 -9
-10 -9 0 0 7 -4 10 -10 7 -5 -3 -10 -1 -10 6 0 7 -8 5 -21 -7 -22 -19 -22 -19
-8 4 8 12 20 20 28 17 8 -3 11 0 8 9 -3 8 -3 17 0 20 9 9 15 7 9 -2z m-1676
-18 c0 -8 -5 -12 -10 -9 -6 4 -8 11 -5 16 9 14 15 11 15 -7z m1921 -20 c66
-40 81 -59 70 -86 -9 -21 -10 -21 -11 -3 0 11 -12 34 -26 50 -25 29 -25 29
-19 5 l6 -25 -14 23 c-7 12 -16 19 -20 16 -4 -4 -7 -3 -7 3 0 6 -11 14 -24 17
-29 7 -44 36 -16 31 10 -2 38 -16 61 -31z m-1091 22 c0 -2 -7 -7 -16 -10 -8
-3 -12 -2 -9 4 6 10 25 14 25 6z m-1152 -26 c-12 -19 -38 -16 -38 5 0 7 11 13
24 13 21 0 23 -3 14 -18z m372 10 c0 -5 -5 -10 -11 -10 -5 0 -7 5 -4 10 3 6 8
10 11 10 2 0 4 -4 4 -10z m63 -24 c-3 -4 -9 -2 -14 5 -6 10 -9 11 -9 2 0 -7
-7 -13 -15 -13 -12 0 -12 3 3 18 12 12 20 14 28 7 7 -5 10 -14 7 -19z m662 25
c3 -5 2 -12 -3 -15 -5 -3 -9 1 -9 9 0 17 3 19 12 6z m198 -25 c-4 -6 -8 -5
-11 2 -2 7 -13 12 -25 12 -17 0 -19 2 -8 9 17 11 53 -8 44 -23z m-120 6 c-3
-7 -9 -10 -12 -5 -3 4 -10 11 -15 15 -4 4 1 6 12 5 12 -1 18 -6 15 -15z m496
-1 c8 -5 9 -11 3 -15 -5 -3 -15 1 -22 9 -14 16 -3 20 19 6z m-1815 -17 c3 -8
2 -12 -4 -9 -6 3 -10 10 -10 16 0 14 7 11 14 -7z m496 -28 c0 -3 -7 -3 -15 0
-8 4 -15 13 -15 21 0 12 2 12 15 -1 8 -8 15 -17 15 -20z m1450 14 c0 -5 -4
-12 -10 -15 -5 -3 -10 1 -10 9 0 10 -6 13 -17 10 -14 -5 -15 -4 -4 4 15 11 41
5 41 -8z m27 6 c-3 -8 -1 -17 6 -19 7 -2 10 -7 7 -10 -11 -12 -31 10 -24 26 3
9 8 17 11 17 3 0 3 -6 0 -14z m-2120 -16 c1 -11 -2 -18 -8 -15 -11 7 -12 35
-1 35 4 0 8 -9 9 -20z m59 -7 c-1 -16 2 -35 5 -44 4 -8 3 -22 -2 -30 -7 -11
-9 -9 -9 7 0 23 -23 48 -33 37 -4 -3 -7 -1 -7 5 0 7 9 12 21 12 11 0 18 4 14
10 -3 5 -12 7 -20 3 -8 -3 -15 0 -15 7 0 6 4 9 8 6 4 -2 14 -1 22 5 8 5 15 9
16 9 1 0 0 -12 0 -27z m-82 -8 c3 -8 -5 -25 -18 -38 -12 -13 -22 -30 -20 -39
1 -11 -3 -15 -12 -11 -8 3 -14 -1 -14 -9 0 -8 -7 -23 -15 -34 -9 -10 -4 8 10
41 14 32 31 63 38 67 7 4 8 8 4 8 -4 0 -2 7 5 15 16 18 15 18 22 0z m206 -3
c0 -4 -12 -9 -27 -10 -26 -1 -27 -1 -9 13 18 14 36 12 36 -3z m320 9 c0 -5 -7
-11 -14 -14 -10 -4 -13 -1 -9 9 6 15 23 19 23 5z m1810 -1 c-13 -9 -7 -14 12
-11 5 0 7 -14 5 -33 -1 -19 -5 -32 -9 -30 -3 2 -8 1 -11 -3 -2 -5 -2 -1 1 7 7
24 7 35 1 35 -3 0 -14 6 -23 14 -13 11 -14 16 -4 22 7 5 20 9 28 9 13 0 13 -1
0 -10z m-1895 -59 c-10 -10 -34 10 -29 24 6 14 8 13 19 -2 8 -10 12 -20 10
-22z m330 29 c4 -6 3 -10 -2 -9 -18 3 -53 -14 -53 -26 0 -7 -6 -18 -14 -24
-11 -10 -14 -9 -12 4 3 22 21 37 73 64 1 1 5 -4 8 -9z m605 6 c0 -2 -9 -6 -20
-9 -11 -3 -18 -1 -14 4 5 9 34 13 34 5z m540 0 c0 -3 -4 -8 -10 -11 -5 -3 -10
-1 -10 4 0 6 5 11 10 11 6 0 10 -2 10 -4z m193 -11 c-3 -9 -8 -14 -10 -11 -3
3 -2 9 2 15 9 16 15 13 8 -4z m187 -1 c0 -8 -5 -12 -10 -9 -6 4 -8 11 -5 16 9
14 15 11 15 -7z m-2233 -17 c-2 -7 0 -21 5 -32 9 -19 9 -19 -6 -1 -9 10 -13
23 -10 27 3 5 0 9 -6 9 -6 0 -8 5 -5 10 8 13 27 2 22 -13z m150 17 c-3 -4 -1
-16 5 -28 10 -20 9 -20 -7 -4 -15 14 -14 38 2 38 4 0 3 -3 0 -6z m-40 -23 c-9
-12 -9 -13 1 -7 17 10 27 -21 12 -39 -14 -17 -30 -11 -30 11 0 9 5 12 13 8 10
-6 10 -4 0 7 -17 18 -16 36 2 36 12 0 12 -3 2 -16z m418 9 c3 -5 1 -10 -4 -10
-6 0 -11 5 -11 10 0 6 2 10 4 10 3 0 8 -4 11 -10z m1082 -10 c-1 -12 -5 -16
-10 -11 -5 5 -6 14 -3 20 11 16 15 13 13 -9z m163 11 c0 -5 -7 -11 -14 -14
-10 -4 -13 -1 -9 9 6 15 23 19 23 5z m-1330 -12 c0 -15 -18 -19 -23 -6 -3 8 1
14 9 14 8 0 14 -4 14 -8z m1087 -11 c-3 -8 -6 -5 -6 6 -1 11 2 17 5 13 3 -3 4
-12 1 -19z m480 -8 c-3 10 3 15 18 15 14 0 21 -5 18 -12 -3 -7 -11 -13 -19
-13 -8 0 -14 -5 -14 -12 0 -6 -7 -3 -15 8 -20 26 -19 43 1 18 10 -12 14 -13
11 -4z m-1532 0 c3 -5 1 -10 -4 -10 -6 0 -11 5 -11 10 0 6 2 10 4 10 3 0 8 -4
11 -10z m1032 -15 c0 -8 -6 -15 -14 -15 -17 0 -17 17 0 23 6 3 12 6 13 6 0 1
1 -6 1 -14z m453 -5 c-8 -5 -18 -6 -24 -3 -5 4 -1 10 10 13 24 9 34 2 14 -10z
m292 -15 c-27 -16 -27 -38 0 -31 13 3 17 3 10 0 -6 -3 -9 -10 -6 -16 4 -6 -1
-6 -14 1 -21 11 -24 42 -3 49 9 3 9 8 -1 20 -12 14 -11 14 9 1 21 -12 21 -14
5 -24z m-2017 -5 c3 -5 -4 -6 -15 -3 -11 3 -22 9 -25 13 -3 5 4 6 15 3 11 -3
22 -9 25 -13z m275 11 c0 -6 -4 -12 -8 -15 -5 -3 -9 1 -9 9 0 8 4 15 9 15 4 0
8 -4 8 -9z m90 -5 c-12 -12 -13 -29 -1 -22 15 10 19 -30 5 -49 -12 -17 -14
-17 -14 -2 0 9 5 17 12 17 6 0 3 8 -8 19 -16 15 -20 16 -27 4 -5 -7 -13 -10
-19 -7 -7 5 -8 2 -4 -5 5 -7 14 -10 20 -8 7 3 13 -1 13 -9 0 -7 -4 -11 -9 -8
-4 3 -8 1 -8 -3 0 -5 -9 -9 -19 -9 -11 0 -17 5 -15 11 3 5 -1 2 -9 -7 -17 -22
-27 -23 -27 -3 0 8 4 15 9 15 5 0 26 17 47 38 22 21 45 38 52 38 9 1 9 -3 2
-10z m-577 -16 c3 -12 0 -20 -8 -20 -8 0 -11 8 -8 20 3 11 7 20 8 20 1 0 5 -9
8 -20z m457 -5 c0 -16 -47 -51 -56 -42 -7 7 8 35 19 36 4 1 12 1 18 1 5 0 7 5
4 10 -3 6 -1 10 4 10 6 0 11 -7 11 -15z m-371 -25 c4 0 12 5 19 12 9 9 12 8
12 -5 0 -9 -7 -17 -15 -17 -23 0 -18 -18 7 -22 30 -4 34 -24 4 -23 -31 0 -32
2 -39 50 -3 22 -3 32 -1 23 3 -10 9 -18 13 -18z m1221 20 c0 -5 -5 -10 -11
-10 -5 0 -7 5 -4 10 3 6 8 10 11 10 2 0 4 -4 4 -10z m400 -10 c-11 -11 -23
-20 -27 -20 -3 0 2 9 12 20 10 11 22 20 27 20 4 0 -1 -9 -12 -20z m288 -9 c-7
-9 -17 -19 -23 -23 -6 -4 -2 -8 8 -8 9 0 17 6 18 13 0 8 2 8 6 -2 5 -11 7 -11
14 0 7 11 9 10 9 -3 0 -11 -8 -18 -19 -18 -11 0 -23 -4 -26 -10 -3 -5 -12 -10
-18 -10 -7 0 -6 4 3 10 13 8 8 14 -10 12 -8 -1 -6 41 3 55 4 6 16 9 27 6 17
-5 18 -8 8 -22z m274 11 c3 -11 0 -19 -7 -19 -7 0 -10 8 -7 19 2 10 6 18 7 18
1 0 5 -8 7 -18z m-1602 -9 c0 -3 -7 -2 -16 1 -12 5 -15 2 -10 -9 3 -9 2 -13
-4 -10 -6 3 -10 1 -10 -5 0 -6 -5 -8 -11 -4 -8 4 -7 9 2 15 8 5 10 9 4 9 -5 0
-4 4 4 9 14 9 41 4 41 -6z m370 -1 c0 -5 -7 -9 -15 -9 -8 0 -12 4 -9 9 3 4 9
8 15 8 5 0 9 -4 9 -8z m1062 -9 c-6 -2 -9 -10 -6 -15 4 -7 2 -8 -4 -4 -18 11
-14 26 6 25 10 0 12 -3 4 -6z m-2090 -27 c-2 -9 1 -16 5 -16 10 0 10 -47 0
-57 -4 -3 -8 8 -8 25 -3 54 -4 57 -14 65 -6 5 -4 7 5 4 8 -2 14 -11 12 -21z
m216 -4 c4 -28 -24 -20 -31 9 -4 15 -1 19 11 17 9 -2 18 -13 20 -26z m152 18
c-11 -7 -11 -10 -2 -10 7 0 10 -4 7 -10 -4 -6 -11 -5 -19 3 -14 12 -4 27 19
27 6 0 3 -5 -5 -10z m1060 6 c0 -2 -8 -10 -17 -17 -16 -13 -17 -12 -4 4 13 16
21 21 21 13z m184 -11 c4 -11 -1 -14 -19 -13 -13 1 -22 5 -19 9 2 4 -2 10 -8
12 -7 3 -1 6 13 6 15 1 29 -6 33 -14z m544 -5 c-7 -10 -14 -17 -17 -15 -4 4
18 35 25 35 2 0 -1 -9 -8 -20z m42 10 c0 -5 -2 -10 -4 -10 -3 0 -8 5 -11 10
-3 6 -1 10 4 10 6 0 11 -4 11 -10z m231 -43 c-14 -14 -43 -18 -35 -6 3 5 9 7
14 4 5 -3 11 -1 15 5 3 5 1 10 -4 10 -6 0 -11 5 -11 11 0 8 5 7 15 -1 11 -9
13 -16 6 -23z m-2129 1 c-7 -7 -12 -8 -12 -2 0 14 12 26 19 19 2 -3 -1 -11 -7
-17z m149 -28 c6 0 8 4 5 8 -2 4 4 9 15 9 24 2 24 -4 -1 -17 -14 -8 -26 -8
-41 0 -17 10 -18 14 -7 27 12 15 13 14 16 -5 2 -12 8 -22 13 -22z m1739 36 c0
-2 -7 -6 -15 -10 -8 -3 -15 -1 -15 4 0 6 7 10 15 10 8 0 15 -2 15 -4z m-2093
-36 c1 -11 -2 -20 -8 -20 -5 0 -9 4 -9 9 0 5 -3 17 -6 25 -4 11 -2 15 8 11 7
-3 14 -14 15 -25z m1710 24 c-3 -3 -12 -4 -19 -1 -8 3 -5 6 6 6 11 1 17 -2 13
-5z m408 -22 c-3 -3 -11 0 -18 7 -9 10 -8 11 6 5 10 -3 15 -9 12 -12z m-202
-35 c-4 -6 -10 -3 -14 9 -4 10 -8 14 -8 8 -1 -7 -10 -14 -20 -17 -14 -3 -18
-1 -14 9 3 8 9 11 14 8 5 -3 9 3 9 12 0 16 1 16 20 -1 11 -10 17 -22 13 -28z
m-1868 23 c3 -5 1 -10 -4 -10 -6 0 -11 5 -11 10 0 6 2 10 4 10 3 0 8 -4 11
-10z m1773 -10 c13 0 13 -3 4 -12 -10 -10 -15 -10 -22 2 -5 8 -9 20 -9 25 0 6
3 4 6 -2 2 -7 12 -13 21 -13z m492 10 c0 -5 -2 -10 -4 -10 -3 0 -8 5 -11 10
-3 6 -1 10 4 10 6 0 11 -4 11 -10z m-2133 -13 c0 -8 -5 -14 -11 -14 -6 0 -20
-4 -31 -9 -20 -7 -20 -7 -1 14 21 25 43 29 43 9z m1947 1 c-3 -4 -9 -8 -15 -8
-5 0 -9 4 -9 8 0 5 7 9 15 9 8 0 12 -4 9 -9z m-799 -8 c3 -6 -1 -7 -9 -4 -18
7 -21 14 -7 14 6 0 13 -4 16 -10z m-68 -22 c-3 -8 -6 -5 -6 6 -1 11 2 17 5 13
3 -3 4 -12 1 -19z m320 16 c-3 -3 -12 -4 -19 -1 -8 3 -5 6 6 6 11 1 17 -2 13
-5z m-1564 -24 c3 -11 1 -23 -4 -26 -5 -3 -9 -1 -9 5 0 5 -3 16 -6 25 -3 9 -2
16 4 16 5 0 12 -9 15 -20z m78 7 c-6 -8 -8 -16 -5 -19 2 -3 -2 -8 -11 -11 -20
-8 -19 2 2 25 19 21 31 25 14 5z m127 -12 c-15 -14 -32 -25 -38 -25 -5 0 -10
-4 -10 -10 0 -5 6 -10 13 -10 8 0 8 -3 -2 -9 -8 -5 -20 -7 -27 -4 -7 2 -20 -7
-30 -22 -9 -14 -23 -24 -30 -21 -8 3 -14 1 -14 -4 0 -6 -7 -10 -15 -10 -8 0
-15 5 -15 11 0 5 4 8 8 5 5 -3 19 6 31 20 12 14 25 22 30 19 5 -2 12 2 15 11
3 8 10 12 16 9 5 -3 10 -2 10 3 0 8 69 62 80 62 3 0 -7 -11 -22 -25z m630 11
c-7 -8 -15 -12 -17 -11 -5 6 10 25 20 25 5 0 4 -6 -3 -14z m1442 -11 c0 -8 -2
-15 -4 -15 -2 0 -6 7 -10 15 -3 8 -1 15 4 15 6 0 10 -7 10 -15z m-2163 -1 c-3
-3 -12 -4 -19 -1 -8 3 -5 6 6 6 11 1 17 -2 13 -5z m-43 -36 c-2 -7 -20 -21
-39 -30 -28 -14 -33 -14 -28 -3 3 8 11 15 19 15 8 0 14 4 14 9 0 5 8 12 18 14
9 3 18 5 19 6 1 0 0 -5 -3 -11z m2172 -73 c-8 -24 -11 -47 -8 -50 4 -3 -1 -3
-11 1 -13 5 -15 10 -6 20 6 7 8 17 5 23 -9 13 12 63 23 56 6 -3 5 -23 -3 -50z
m-1311 25 c3 -6 -1 -7 -9 -4 -18 7 -21 14 -7 14 6 0 13 -4 16 -10z m-55 -70
c6 -11 8 -20 6 -20 -3 0 -10 9 -16 20 -6 11 -8 20 -6 20 3 0 10 -9 16 -20z
m120 -4 c0 -3 -4 -8 -10 -11 -5 -3 -10 -1 -10 4 0 6 5 11 10 11 6 0 10 -2 10
-4z m784 -84 c2 -4 -5 -9 -17 -9 -17 -2 -19 0 -7 7 18 12 18 12 24 2z m-154
-18 c0 -2 -11 -4 -25 -4 -14 0 -25 4 -25 9 0 4 11 6 25 3 14 -2 25 -6 25 -8z
m65 -4 c3 -5 -1 -10 -10 -10 -9 0 -13 5 -10 10 3 6 8 10 10 10 2 0 7 -4 10
-10z m792 -86 c-3 -3 -12 -4 -19 -1 -8 3 -5 6 6 6 11 1 17 -2 13 -5z m53 -5
c0 -4 -7 -10 -16 -13 -8 -3 -13 -2 -9 3 3 5 -1 11 -7 14 -7 3 -3 4 10 4 12 -1
22 -4 22 -8z m57 -12 l32 -12 -31 -50 c-18 -27 -53 -90 -79 -140 -26 -49 -54
-90 -61 -90 -7 0 -12 8 -10 18 2 9 -3 17 -10 18 -7 0 -3 4 10 10 13 5 21 13
17 19 -4 6 1 7 12 3 15 -6 16 -4 6 8 -15 18 -4 37 19 34 9 -2 19 4 22 12 5 11
2 13 -9 9 -9 -3 -13 -2 -10 4 3 6 13 10 21 10 8 0 12 5 9 10 -4 6 -11 7 -17 4
-7 -4 -8 -2 -4 4 4 7 15 12 24 13 10 0 12 3 5 6 -10 3 -10 7 0 18 7 7 16 11
21 8 4 -3 12 1 17 8 13 20 11 31 -3 24 -7 -4 -2 3 12 16 24 21 24 21 3 15 -13
-4 -23 -3 -23 2 0 6 -10 8 -22 4 -21 -5 -22 -4 -9 11 15 19 15 19 58 4z m-751
-22 c-25 -19 -37 -19 -30 0 4 8 16 15 28 15 21 -1 21 -1 2 -15z m-891 -5 c3
-5 1 -10 -4 -10 -6 0 -11 5 -11 10 0 6 2 10 4 10 3 0 8 -4 11 -10z m512 -35
c0 -8 -4 -12 -9 -9 -4 3 -8 -1 -8 -8 0 -9 -3 -9 -10 2 -7 11 -5 17 8 22 9 4
17 7 18 7 0 1 1 -6 1 -14z m120 -1 c-3 -3 -12 -4 -19 -1 -8 3 -5 6 6 6 11 1
17 -2 13 -5z m108 -24 c3 -6 -1 -7 -9 -4 -18 7 -21 14 -7 14 6 0 13 -4 16 -10z
m-65 -15 c9 -10 9 -15 1 -15 -6 0 -11 5 -11 11 0 7 -10 9 -26 5 -17 -5 -23 -3
-19 4 9 15 41 12 55 -5z m75 -35 c-3 -5 -11 -10 -16 -10 -6 0 -7 5 -4 10 3 6
11 10 16 10 6 0 7 -4 4 -10z m41 -16 c-4 -9 -9 -15 -11 -12 -3 3 -3 13 1 22 4
9 9 15 11 12 3 -3 3 -13 -1 -22z m41 1 c0 -8 -4 -15 -9 -15 -4 0 -8 7 -8 15 0
8 4 15 8 15 5 0 9 -7 9 -15z m-2120 -29 c-3 -6 1 -20 8 -30 8 -10 11 -25 8
-34 -4 -10 -2 -13 5 -8 8 5 10 2 6 -8 -3 -9 -2 -16 4 -16 5 0 8 -11 7 -25 -2
-14 2 -25 8 -25 5 0 8 -3 4 -6 -3 -4 0 -13 8 -20 8 -8 11 -22 8 -31 -4 -10 -2
-14 4 -10 6 4 10 -1 10 -11 -1 -16 21 -71 33 -82 3 -3 16 -26 29 -53 13 -26
43 -66 67 -89 24 -23 40 -46 37 -51 -3 -6 -1 -7 5 -3 6 4 26 -8 45 -26 35 -34
40 -38 57 -38 6 0 10 -6 10 -14 0 -8 9 -18 21 -21 15 -5 19 -13 16 -27 -4 -16
-3 -17 9 -7 11 9 14 9 14 0 0 -7 5 -9 12 -5 7 5 9 2 6 -8 -4 -8 0 -15 8 -15 7
0 10 5 7 11 -4 6 4 2 17 -9 43 -36 50 -43 50 -56 0 -8 3 -9 14 0 10 9 16 7 26
-5 8 -8 27 -22 44 -31 40 -20 48 -34 33 -53 -10 -13 -10 -13 4 -3 9 7 20 9 24
5 5 -4 5 -1 1 6 -4 6 -2 12 3 12 6 0 11 -4 11 -10 0 -5 11 -10 24 -10 13 0 35
-12 50 -26 14 -15 26 -21 26 -14 0 10 3 10 15 0 8 -7 12 -17 8 -23 -3 -5 -1
-7 4 -4 6 4 25 4 43 1 22 -5 29 -11 25 -22 -5 -13 -3 -13 12 -1 14 12 16 12 8
0 -6 -11 -3 -13 19 -7 16 4 26 2 26 -4 0 -6 5 -8 10 -5 6 3 10 2 10 -3 0 -5
16 -9 35 -10 19 -1 45 -7 58 -13 12 -7 35 -14 52 -16 59 -8 70 -11 68 -19 -1
-8 10 -11 77 -17 14 -1 28 -6 33 -12 4 -6 11 -4 18 5 9 13 10 13 6 0 -4 -15
-44 -23 -62 -12 -5 4 -19 7 -30 8 -55 5 -120 16 -129 22 -6 3 -20 7 -31 8 -11
0 -34 5 -50 9 -17 5 -34 9 -40 10 -26 3 -55 17 -50 25 3 4 -4 6 -14 3 -17 -4
-50 6 -176 58 -16 7 -37 13 -45 15 -8 2 -16 8 -18 13 -2 6 -10 11 -17 11 -22
0 -65 26 -57 35 4 5 1 5 -5 1 -12 -7 -52 9 -63 24 -3 4 -21 15 -40 25 -39 20
-60 39 -60 54 0 6 -6 8 -13 5 -16 -6 -237 210 -237 231 0 3 -15 29 -33 58 -31
50 -72 131 -77 152 -1 6 -8 21 -15 35 -15 27 -45 121 -52 157 -10 63 -11 73
-1 67 5 -3 7 -11 5 -18z m1723 10 c0 -11 -19 -15 -25 -6 -3 5 1 10 9 10 9 0
16 -2 16 -4z m196 -3 c-10 -10 -46 -14 -46 -5 0 4 12 9 27 10 14 1 23 -1 19
-5z m104 -40 c0 -7 -7 -13 -16 -13 -8 0 -12 5 -9 10 4 6 1 18 -7 27 -12 15
-11 15 10 2 12 -8 22 -19 22 -26z m224 -18 c3 -8 1 -15 -4 -15 -6 0 -10 7 -10
15 0 8 2 15 4 15 2 0 6 -7 10 -15z m416 4 c0 -5 -5 -7 -11 -4 -6 4 -18 -3 -26
-15 -12 -17 -18 -19 -24 -9 -5 8 0 17 14 25 28 15 47 17 47 3z m-1370 -11 c0
6 5 12 11 12 8 0 8 -5 -1 -15 -17 -20 -30 -19 -30 3 0 14 2 15 10 2 6 -10 10
-11 10 -2z m586 0 c4 -6 3 -8 -3 -5 -6 4 -14 0 -17 -9 -4 -9 -9 -14 -13 -11
-3 4 0 13 7 22 15 18 17 18 26 3z m544 2 c0 -5 -5 -10 -11 -10 -5 0 -7 5 -4
10 3 6 8 10 11 10 2 0 4 -4 4 -10z m-73 -15 c0 -8 -4 -12 -9 -9 -5 3 -6 10 -3
15 9 13 12 11 12 -6z m53 -25 c0 -5 -5 -10 -11 -10 -5 0 -7 5 -4 10 3 6 8 10
11 10 2 0 4 -4 4 -10z m-233 -53 c1 -29 1 -30 -8 -9 -5 13 -7 28 -3 33 8 14 9
12 11 -24z m631 18 c3 -3 0 -5 -6 -5 -7 0 -12 -6 -12 -13 0 -8 -11 -19 -24
-25 -20 -9 -24 -8 -22 6 2 9 8 18 14 20 6 2 8 10 6 17 -4 10 0 13 16 10 13 -2
25 -7 28 -10z m-1278 -41 c0 -8 -19 -13 -24 -6 -3 5 1 9 9 9 8 0 15 -2 15 -3z
m780 -10 c0 -8 -4 -12 -10 -9 -5 3 -10 10 -10 16 0 5 5 9 10 9 6 0 10 -7 10
-16z m-601 3 c-2 -1 -12 -9 -22 -16 -15 -12 -17 -12 -11 3 3 9 13 16 22 16 8
0 13 -1 11 -3z m1059 -37 c-8 -24 -13 -28 -23 -20 -9 8 -15 8 -18 0 -3 -6 -4
-5 -3 2 2 7 10 12 19 12 9 -1 16 1 15 5 -2 17 3 31 11 31 6 0 6 -12 -1 -30z
m-741 -76 c-3 -3 -12 -4 -19 -1 -8 3 -5 6 6 6 11 1 17 -2 13 -5z m731 -11
c-13 -16 -22 -17 -12 -1 5 8 2 9 -10 5 -9 -4 -15 -3 -11 2 3 6 14 9 25 8 14
-1 16 -4 8 -14z m-1213 -13 c3 -5 1 -10 -4 -10 -6 0 -11 5 -11 10 0 6 2 10 4
10 3 0 8 -4 11 -10z m229 -15 c-4 -8 -10 -12 -15 -9 -11 6 -2 24 11 24 5 0 7
-7 4 -15z m59 -5 c4 -17 2 -18 -15 -9 -17 9 -18 13 -7 20 8 5 15 9 15 9 1 0 4
-9 7 -20z m963 -27 c-2 -3 -8 -5 -13 -5 -4 -1 -14 -8 -22 -17 -8 -9 -7 -5 2
10 12 20 13 29 4 40 -7 7 -2 5 11 -5 12 -11 20 -21 18 -23z m48 21 c3 -8 2
-12 -4 -9 -6 3 -10 10 -10 16 0 14 7 11 14 -7z m60 4 c-3 -4 1 -8 8 -8 9 0 9
-3 -2 -10 -9 -6 -10 -10 -3 -10 11 0 23 -24 22 -44 0 -5 14 -15 31 -22 20 -9
29 -18 24 -25 -5 -9 -11 -7 -20 5 -6 9 -21 18 -31 19 -13 0 -20 9 -21 26 -1
14 -9 32 -17 40 -13 14 -15 13 -15 -2 0 -11 -5 -15 -11 -11 -7 4 -7 -1 1 -16
7 -12 8 -20 2 -16 -5 3 -12 0 -15 -8 -4 -10 0 -12 15 -8 13 3 24 -1 29 -11 6
-9 17 -13 29 -10 12 3 21 0 22 -8 0 -8 2 -18 3 -24 2 -5 3 -14 4 -20 1 -5 5
-4 10 3 6 11 9 9 13 -6 4 -14 -4 -29 -23 -48 -16 -15 -29 -24 -29 -20 0 5 -10
-3 -21 -18 -12 -15 -23 -25 -26 -23 -2 3 -18 -8 -34 -24 -16 -16 -34 -29 -39
-29 -5 0 -15 -6 -22 -13 -17 -16 -67 -48 -71 -45 -1 2 -13 -7 -26 -19 -13 -12
-28 -20 -33 -17 -4 3 -8 0 -8 -7 0 -7 -10 -9 -25 -7 -18 4 -22 2 -16 -6 7 -8
-17 -24 -75 -53 -46 -23 -84 -38 -84 -32 0 5 5 9 12 9 6 0 9 3 5 6 -9 9 21 36
32 30 5 -4 16 1 25 9 8 9 17 16 18 16 17 -1 48 14 52 25 3 8 12 11 22 7 11 -4
15 -2 11 4 -8 13 20 26 35 16 6 -3 8 -1 5 4 -4 6 11 20 33 31 22 10 37 22 33
26 -3 3 1 6 11 6 10 0 37 11 60 25 35 21 43 31 44 56 1 41 9 47 28 21 15 -21
34 -22 34 -1 0 6 -4 8 -9 4 -5 -3 -12 -1 -16 4 -3 6 4 8 15 6 11 -2 18 0 16 4
-6 9 -86 11 -83 2 1 -3 -2 -8 -7 -11 -5 -3 -10 3 -12 12 -1 10 3 16 9 15 7 -1
11 6 10 17 -1 10 7 28 18 39 16 18 19 18 25 4 3 -9 11 -14 17 -10 6 3 7 1 3
-6 -4 -6 -15 -10 -23 -9 -9 2 -18 -4 -20 -12 -3 -9 -1 -11 4 -5 4 6 22 11 40
10 24 0 35 6 43 24 10 22 9 23 -14 19 -14 -3 -23 -2 -21 2 3 4 -2 13 -9 19
-10 9 -16 9 -21 1 -5 -8 -11 -8 -19 -1 -7 6 -15 8 -18 5 -3 -3 -9 0 -14 7 -4
7 -3 10 4 5 6 -3 13 -2 16 3 4 5 2 13 -4 16 -8 5 -8 11 0 20 10 11 8 13 -9 10
-12 -2 -19 0 -16 6 4 5 12 9 18 9 7 0 20 8 28 18 16 18 53 27 43 10z m75 -7
c7 -5 12 -14 10 -20 -3 -8 -13 -5 -28 8 -24 21 -10 30 18 12z m-949 -30 c0 -6
-4 -13 -10 -16 -5 -3 -10 1 -10 9 0 9 5 16 10 16 6 0 10 -4 10 -9z m203 -6
c-3 -9 -8 -14 -10 -11 -3 3 -2 9 2 15 9 16 15 13 8 -4z m717 5 c0 -5 -5 -10
-11 -10 -5 0 -7 5 -4 10 3 6 8 10 11 10 2 0 4 -4 4 -10z m-842 -25 c-3 -3 -9
2 -12 12 -6 14 -5 15 5 6 7 -7 10 -15 7 -18z m-375 -25 c-3 -11 -14 -20 -24
-20 -24 0 -25 16 -1 29 25 15 31 13 25 -9z m80 6 c4 -10 17 -14 41 -11 20 2
39 -1 42 -6 3 -5 -2 -6 -10 -3 -9 3 -16 1 -16 -4 0 -14 -61 3 -72 20 -6 10 -8
10 -8 1 0 -7 -7 -13 -15 -13 -21 0 -19 18 3 23 29 8 30 8 35 -7z m966 -42
c-14 -13 -17 -13 -30 3 -13 16 -12 17 3 4 15 -11 19 -11 24 3 4 9 9 14 12 11
3 -3 -1 -12 -9 -21z m-39 -19 c0 -5 -5 -3 -10 5 -5 8 -10 20 -10 25 0 6 5 3
10 -5 5 -8 10 -19 10 -25z m97 9 c-3 -3 -12 -4 -19 -1 -8 3 -5 6 6 6 11 1 17
-2 13 -5z m-1317 -19 c0 -1 -9 -5 -19 -8 -13 -3 -18 -1 -14 9 4 10 33 10 33
-1z m240 -9 c0 -2 -7 -7 -16 -10 -8 -3 -12 -2 -9 4 6 10 25 14 25 6z m-515
-16 c3 -5 1 -10 -4 -10 -6 0 -11 5 -11 10 0 6 2 10 4 10 3 0 8 -4 11 -10z
m1525 5 c0 -2 -10 -9 -22 -15 -22 -11 -22 -10 -4 4 21 17 26 19 26 11z m-72
-27 c-2 -7 2 -12 8 -11 7 1 10 -6 7 -18 -5 -19 -6 -19 -18 3 -6 13 -10 26 -8
31 7 11 13 8 11 -5z m-710 -16 c3 -9 -2 -13 -14 -10 -9 1 -19 9 -22 16 -3 9 2
13 14 10 9 -1 19 -9 22 -16z m-64 -8 c3 -8 2 -12 -4 -9 -6 3 -10 10 -10 16 0
14 7 11 14 -7z m226 -3 c0 -6 -4 -12 -8 -15 -5 -3 -9 1 -9 9 0 8 4 15 9 15 4
0 8 -4 8 -9z m537 -23 c-3 -8 -6 -5 -6 6 -1 11 2 17 5 13 3 -3 4 -12 1 -19z
m-621 -15 c-10 -10 -19 5 -10 18 6 11 8 11 12 0 2 -7 1 -15 -2 -18z m-792 2
c-4 -8 -10 -15 -15 -15 -4 0 -6 7 -3 15 4 8 10 15 15 15 4 0 6 -7 3 -15z m288
-33 c3 7 7 5 11 -6 6 -15 3 -17 -13 -13 -11 3 -20 0 -20 -6 0 -7 -4 -6 -9 3
-13 19 -3 34 14 20 10 -8 14 -8 17 2z m713 -2 c3 -5 -1 -10 -10 -10 -9 0 -13
5 -10 10 3 6 8 10 10 10 2 0 7 -4 10 -10z m-953 -18 c-7 -2 -10 -8 -6 -13 3
-5 0 -9 -5 -9 -13 0 -13 3 -5 24 3 9 11 13 17 9 8 -5 7 -8 -1 -11z m488 -22
c0 -5 -2 -10 -4 -10 -3 0 -8 5 -11 10 -3 6 -1 10 4 10 6 0 11 -4 11 -10z
m-280 -14 c0 -11 -19 -15 -25 -6 -3 5 1 10 9 10 9 0 16 -2 16 -4z m220 -21
c14 -19 14 -19 -2 -6 -10 7 -18 18 -18 24 0 6 1 8 3 6 1 -2 9 -13 17 -24z
m-85 -35 c3 -5 1 -10 -4 -10 -6 0 -11 5 -11 10 0 6 2 10 4 10 3 0 8 -4 11 -10z
m-120 -49 c-6 -5 -25 10 -25 20 0 5 6 4 14 -3 8 -7 12 -15 11 -17z m615 9 c0
-5 -7 -7 -15 -4 -8 4 -15 8 -15 10 0 2 7 4 15 4 8 0 15 -4 15 -10z m-102 -48
c2 -7 -1 -12 -8 -12 -6 0 -9 4 -6 9 4 5 1 12 -4 14 -6 3 -5 4 2 3 6 -1 14 -8
16 -14z m-758 -6 c-7 -7 -14 -6 -21 1 -9 9 -7 12 9 10 14 -1 18 -5 12 -11z
m207 -1 c0 -8 -4 -15 -9 -15 -10 0 -11 14 -1 23 9 10 10 9 10 -8z m43 7 c0 -5
-7 -9 -15 -9 -8 0 -15 4 -15 9 0 4 7 8 15 8 8 0 15 -4 15 -8z m360 -22 c0 -5
-5 -10 -11 -10 -5 0 -7 5 -4 10 3 6 8 10 11 10 2 0 4 -4 4 -10z m530 -20 c0
-5 -7 -6 -17 -3 -11 4 -14 3 -9 -6 4 -6 4 -11 -1 -10 -4 1 -10 0 -13 -1 -3 -1
-13 -3 -23 -5 -22 -4 -17 2 20 25 28 17 43 17 43 0z m-1117 -10 c-3 -11 -7
-20 -9 -20 -2 0 -4 9 -4 20 0 11 4 20 9 20 5 0 7 -9 4 -20z m260 -5 c-7 -21
-13 -19 -13 6 0 11 4 18 10 14 5 -3 7 -12 3 -20z m-133 -11 c0 -8 3 -13 8 -10
4 2 16 -2 27 -10 10 -8 14 -14 9 -14 -6 0 -14 3 -18 8 -4 4 -12 8 -17 8 -5 1
-13 2 -17 3 -4 0 -8 10 -8 20 0 11 4 17 8 15 4 -3 8 -12 8 -20z m590 -19 c0
-2 -7 -5 -15 -9 -9 -3 -15 0 -15 9 0 9 6 12 15 9 8 -4 15 -7 15 -9z m-915 -5
c3 -5 1 -10 -4 -10 -6 0 -11 5 -11 10 0 6 2 10 4 10 3 0 8 -4 11 -10z m470
-20 c3 -5 1 -10 -4 -10 -6 0 -11 5 -11 10 0 6 2 10 4 10 3 0 8 -4 11 -10z
m-211 -18 c-18 -12 -25 -42 -9 -42 7 0 17 -4 20 -10 4 -6 -4 -9 -19 -8 -14 1
-23 4 -21 7 3 2 -3 14 -12 25 -10 12 -14 18 -9 14 5 -4 15 -1 23 7 8 8 20 15
26 15 8 0 9 -3 1 -8z m146 -51 c0 -16 -4 -21 -14 -18 -7 3 -19 0 -25 -6 -8 -8
-11 -8 -11 1 0 11 13 16 33 13 11 -2 8 6 -10 24 -13 14 -14 18 -2 25 16 11 29
-6 29 -39z m201 2 c13 -16 12 -17 -3 -4 -10 7 -18 15 -18 17 0 8 8 3 21 -13z"/>
<path d="M3215 5950 c4 -6 11 -8 16 -5 14 9 11 15 -7 15 -8 0 -12 -5 -9 -10z"/>
<path d="M3049 5663 c-13 -16 -12 -17 4 -4 9 7 17 15 17 17 0 8 -8 3 -21 -13z"/>
<path d="M4786 4618 c3 -5 10 -6 15 -3 13 9 11 12 -6 12 -8 0 -12 -4 -9 -9z"/>
<path d="M4546 4368 c3 -4 9 -8 15 -8 5 0 9 4 9 8 0 5 -7 9 -15 9 -8 0 -12 -4
-9 -9z"/>
<path d="M3156 3962 c-3 -5 1 -9 9 -9 8 0 12 4 9 9 -3 4 -7 8 -9 8 -2 0 -6 -4
-9 -8z"/>
<path d="M4735 3930 c-8 -13 5 -13 25 0 13 8 13 10 -2 10 -9 0 -20 -4 -23 -10z"/>
<path d="M5168 3103 c7 -3 16 -2 19 1 4 3 -2 6 -13 5 -11 0 -14 -3 -6 -6z"/>
<path d="M5285 1630 c-3 -6 1 -7 9 -4 18 7 21 14 7 14 -6 0 -13 -4 -16 -10z"/>
<path d="M5279 1339 c-12 -7 -12 -9 1 -10 8 -1 18 -1 23 0 4 0 6 -3 5 -8 -4
-13 16 -15 20 -2 5 15 -32 31 -49 20z"/>
<path d="M1112 5870 c-96 -25 -239 -83 -316 -127 -33 -20 -95 -71 -137 -113
-65 -65 -86 -96 -133 -191 -77 -155 -108 -279 -108 -424 0 -182 38 -292 150
-441 92 -122 158 -179 268 -230 196 -92 342 -89 559 9 39 18 90 44 114 59 24
15 67 32 96 38 49 10 60 8 161 -26 60 -20 135 -39 167 -42 51 -4 61 -2 82 18
55 52 26 95 -150 224 -20 14 -19 16 17 53 51 52 86 145 105 277 34 231 -27
495 -150 655 -76 98 -248 221 -368 261 -79 27 -253 27 -357 0z m313 -56 c45
-10 153 -66 220 -116 142 -105 220 -221 267 -393 32 -121 32 -351 0 -455 -21
-66 -31 -82 -83 -130 -32 -31 -59 -63 -59 -72 0 -27 56 -84 138 -141 l74 -52
-34 -3 c-20 -2 -78 12 -139 32 -57 19 -118 37 -136 41 -41 8 -147 -19 -194
-49 -124 -82 -256 -119 -403 -112 -183 8 -289 50 -394 154 -224 222 -275 506
-146 814 62 151 154 265 271 338 64 41 215 106 303 131 85 24 235 30 315 13z"/>
<path d="M1219 5347 c-41 -28 -75 -85 -90 -154 -12 -51 -13 -52 -27 -32 -22
32 -102 79 -134 79 -132 0 -151 -192 -34 -335 40 -48 152 -128 246 -175 36
-18 67 -36 70 -40 3 -3 13 -9 22 -13 13 -4 17 -1 15 11 -1 9 22 64 50 122 69
137 95 238 96 360 1 101 -10 138 -55 180 -31 29 -114 28 -159 -3z m88 -52
c-15 -16 -22 -11 -13 10 3 9 10 13 16 10 6 -4 5 -11 -3 -20z m47 -7 c-3 -5
-10 -5 -16 -2 -7 4 -8 2 -4 -5 4 -6 12 -8 18 -5 16 10 28 -17 26 -61 -1 -30
-2 -33 -5 -12 -2 15 -9 27 -14 27 -5 0 -9 5 -9 11 0 5 5 7 12 3 7 -5 8 -3 3 5
-4 7 -15 11 -25 8 -13 -3 -17 0 -13 9 3 8 -1 14 -8 14 -11 0 -11 2 -1 8 17 11
43 11 36 0z m-124 -23 c0 -14 -5 -25 -11 -25 -5 0 -7 5 -4 10 3 6 1 10 -5 10
-7 0 -6 5 2 15 17 19 18 19 18 -10z m-41 -62 c-17 -17 -19 -25 -10 -40 10 -17
10 -17 11 0 0 19 15 23 25 7 3 -5 -6 -20 -21 -33 -18 -16 -24 -26 -16 -31 7
-4 12 -1 12 7 0 7 7 14 15 14 8 0 15 -7 15 -14 0 -8 -4 -12 -9 -8 -5 3 -12 1
-16 -5 -3 -5 -1 -10 6 -10 7 0 9 -3 6 -7 -4 -3 -15 1 -25 10 -10 10 -22 14
-25 10 -4 -3 -7 -1 -7 5 0 5 6 13 13 15 9 4 9 7 -1 14 -10 8 -9 18 3 52 20 58
26 66 36 50 5 -9 1 -22 -12 -36z m62 -10 c13 -16 12 -17 -3 -4 -17 13 -22 21
-14 21 2 0 10 -8 17 -17z m-231 -24 c11 -8 7 -9 -17 -5 -20 3 -33 1 -33 -5 0
-6 4 -8 8 -5 4 2 14 0 22 -5 11 -7 8 -8 -10 -5 -14 2 -33 7 -42 11 -11 4 -18
3 -18 -4 0 -6 -5 -11 -10 -11 -7 0 -7 6 0 20 12 22 73 28 100 9z m307 -24 c8
-22 -2 -29 -24 -15 -16 10 -16 11 0 6 19 -6 24 10 5 17 -10 4 -10 6 0 6 7 1
15 -6 19 -14z m-377 -14 c0 -13 -29 -41 -42 -41 -6 0 0 11 13 24 28 28 29 29
29 17z m-1 -77 c-24 -26 -22 -34 8 -37 15 -1 19 -6 15 -22 -3 -11 -1 -17 3
-13 5 5 15 -1 22 -12 8 -11 19 -18 24 -15 5 4 9 2 9 -3 0 -17 -44 -22 -60 -7
-21 19 -60 97 -60 119 0 19 16 22 23 4 3 -8 6 -6 6 4 1 11 6 15 17 11 13 -5
12 -9 -7 -29z m51 7 c0 -6 -4 -13 -10 -16 -5 -3 -10 1 -10 9 0 9 5 16 10 16 6
0 10 -4 10 -9z m60 -8 c0 -17 -8 -16 -26 1 -12 13 -12 15 6 13 11 -1 20 -7 20
-14z m107 0 c-4 -3 1 -11 10 -18 9 -7 13 -17 9 -23 -11 -18 -26 -14 -19 4 5
14 3 15 -18 5 -20 -10 -21 -10 -8 1 9 7 14 19 12 26 -3 6 1 12 8 12 7 0 9 -3
6 -7z m158 -123 c3 -5 1 -10 -4 -10 -6 0 -11 5 -11 10 0 6 2 10 4 10 3 0 8 -4
11 -10z m-40 -18 c-3 -3 -11 0 -18 7 -9 10 -8 11 6 5 10 -3 15 -9 12 -12z
m-247 -1 c11 -7 11 -9 -1 -14 -9 -3 -21 1 -27 9 -10 11 -10 14 1 14 8 0 20 -4
27 -9z m272 -35 c0 -8 -6 -16 -13 -19 -8 -3 -13 3 -13 14 0 11 6 19 13 19 7 0
13 -6 13 -14z m-90 -92 c8 -8 9 -14 4 -13 -21 4 -28 -2 -14 -11 8 -5 10 -10 4
-10 -15 0 -39 29 -30 37 3 3 6 1 6 -6 0 -7 5 -9 10 -6 6 4 8 11 5 16 -10 15 1
10 15 -7z m40 -54 c0 -5 -4 -10 -10 -10 -5 0 -10 5 -10 10 0 6 5 10 10 10 6 0
10 -4 10 -10z"/>
<path d="M976 4957 c3 -10 9 -15 12 -12 3 3 0 11 -7 18 -10 9 -11 8 -5 -6z"/>
<path d="M4375 5730 c-3 -5 -3 -11 2 -11 4 -1 13 -2 18 -4 6 -1 14 -3 19 -3 5
-1 3 -8 -3 -15 -8 -10 -7 -14 4 -14 8 0 13 3 10 5 -3 3 3 11 13 19 16 12 16
13 0 7 -11 -4 -20 0 -24 10 -7 18 -30 21 -39 6z"/>
<path d="M4451 5653 c7 -10 15 -20 16 -22 2 -2 3 3 3 11 0 9 -7 19 -16 22 -15
6 -15 4 -3 -11z"/>
</g>
</svg>
